<svg xmlns="http://www.w3.org/2000/svg" xmlns:xlink="http://www.w3.org/1999/xlink" preserveAspectRatio="xMidYMid" width="550" height="427" viewBox="0 0 740 575">
  <defs>
    <style>
      .bold {
        font-weight:700;
      }
      .cls-1 {
        fill: #f0f0f0;
        stroke: #dcdcdc;
        stroke-width: 2px;
      }

      .cls-1, .cls-11, .cls-17, .cls-5, .cls-8 {
        stroke-linejoin: round;
      }

      .cls-2, .cls-5 {
        fill: #fff;
      }

      .cls-3, .cls-4 {
        font-size: 33.809px;
      }

      .cls-15, .cls-20, .cls-4 {
        fill: #1f1f1f;
      }

      .cls-4 {
        font-family: 'Segoe UI', Tahoma, Geneva, Verdana, sans-serif;
      }

      .cls-5 {
        stroke: #e2e2e2;
      }

      .cls-11, .cls-17, .cls-5, .cls-8 {
        stroke-width: 1px;
      }

      .cls-6, .cls-7 {
        fill: #141414;
      }

      .cls-10, .cls-18, .cls-20, .cls-21, .cls-7, .cls-9 {
        fill-rule: evenodd;
      }

      .cls-8 {
        fill: #f9f9f9;
        stroke: #141414;
      }

      .cls-9 {
        fill: #e2e2e2;
      }

      .cls-10 {
        fill: #afaeae;
      }

      .cls-11 {
        fill: #ddd;
        stroke: #7f7f7f;
      }

      .cls-12, .cls-18 {
        fill: #dfdddd;
      }

      .cls-13, .cls-14, .cls-15, .cls-16, .cls-19 {
        font-size: 32.869px;
      }

      .cls-14 {
        fill: #ceced1;
      }

      .cls-14, .cls-15, .cls-16, .cls-19 {
        font-family: 'Segoe UI', Tahoma, Geneva, Verdana, sans-serif;
      }

      .cls-16 {
        fill: #404040;
      }

      .cls-17 {
        fill: #c4e5f6;
        stroke: #4d84aa;
      }

      .cls-19 {
        fill: #cfcfd2;
      }

      .cls-21 {
        fill: #f4f2f2;
      }
    </style>
  </defs>
  <rect width="740" height="575" class="cls-1"/>
  <rect x="2" y="2" width="736" height="96" class="cls-2"/>
  <text transform="translate(14 20) scale(0.53 0.53)" class="cls-3"><tspan class="cls-4">New Maven Project</tspan></text>
  <rect x="12" y="252" width="623" height="187" class="cls-5"/>
  <rect x="110" y="134" width="615" height="23" class="cls-5"/>
  <rect x="634.625" y="12.781" width="9.031" height="1.063" class="cls-6"/>
  <path d="M713.425,17.611 L722.153,8.281 L722.930,9.009 L714.202,18.339 L713.425,17.611 Z" class="cls-7"/>
  <path d="M722.964,17.906 L714.175,8.514 L713.392,9.247 L722.181,18.638 L722.964,17.906 Z" class="cls-7"/>
  <rect x="674.531" y="9.594" width="7.469" height="6.906" class="cls-8"/>
  <path d="M2.000,98.000 L2.000,97.000 L738.000,97.000 L738.000,98.000 L2.000,98.000 Z" class="cls-9"/>
  <path d="M137.077,548.380 L139.980,551.042 L137.077,553.704 L136.254,552.949 L138.333,551.042 L136.254,549.135 L137.077,548.380 Z" class="cls-10"/>
  <rect x="570" y="523" width="139" height="34" class="cls-11"/>
  <rect x="267" y="523" width="139" height="34" class="cls-12"/>
  <text transform="translate(310 546) scale(0.52 0.52)" class="cls-13"><tspan class="cls-14">Next &gt;</tspan></text>
  <rect x="120" y="523" width="139" height="34" class="cls-11"/>
  <text transform="translate(163 546) scale(0.52 0.52)" class="cls-13"><tspan class="cls-15">&lt; Back</tspan></text>
  <text transform="translate(614 546) scale(0.52 0.52)" class="cls-13"><tspan class="cls-16">Cancel</tspan></text>
  <rect x="423" y="523" width="139" height="34" class="cls-17"/>
  <text transform="translate(470 546) scale(0.52 0.52)" class="cls-13"><tspan class="cls-15">Finish</tspan></text>
  <text transform="translate(13 54) scale(0.53 0.53)" class="cls-3"><tspan class="cls-4 bold">Select a wizard</tspan></text>
  <text transform="translate(20 80) scale(0.53 0.53)" class="cls-3"><tspan class="cls-4">Specify Archetype parameters</tspan></text>
  <text transform="translate(12 124) scale(0.53 0.53)" class="cls-3"><tspan class="cls-4">Group Id:</tspan></text>
  <path d="M641.545,251.084 L726.000,251.084 L726.000,277.000 L641.545,277.000 L641.545,251.084 Z" class="cls-18"/>
  <text transform="translate(666 269) scale(0.4 0.4)" class="cls-13"><tspan class="cls-15">Add...</tspan></text>
  <path d="M641.545,281.084 L726.000,281.084 L726.000,307.000 L641.545,307.000 L641.545,281.084 Z" class="cls-18"/>
  <text transform="translate(655 299) scale(0.4 0.4)" class="cls-13"><tspan class="cls-19">Remove..</tspan></text>
  <text transform="translate(24 463) scale(0.53 0.53)" class="cls-3"><tspan class="cls-4">Advanced</tspan></text>
  <path d="M19.033,456.380 L13.689,459.465 L13.689,453.295 L19.033,456.380 Z" class="cls-20"/>
  <path d="M716.303,143.465 L712.661,147.808 L709.020,143.465 L710.053,142.234 L712.661,145.344 L715.270,142.234 L716.303,143.465 Z" class="cls-10"/>
  <rect x="110" y="107" width="615" height="23" class="cls-5"/>
  <path d="M716.303,116.465 L712.661,120.808 L709.020,116.465 L710.053,115.234 L712.661,118.344 L715.270,115.234 L716.303,116.465 Z" class="cls-10"/>
  <text transform="translate(11 151) scale(0.53 0.53)" class="cls-3"><tspan class="cls-4">Artifact Id:</tspan></text>
  <text transform="translate(114 151) scale(0.53 0.53)" class="cls-3"><tspan class="cls-4">SimpleConsoleApp</tspan></text>
  <rect x="110" y="189" width="615" height="23" class="cls-5"/>
  <text transform="translate(12 179) scale(0.53 0.53)" class="cls-3"><tspan class="cls-4">Version:</tspan></text>
  <path d="M716.303,198.465 L712.661,202.808 L709.020,198.465 L710.053,197.234 L712.661,200.344 L715.270,197.234 L716.303,198.465 Z" class="cls-10"/>
  <rect x="110" y="161" width="181" height="23" class="cls-5"/>
  <path d="M281.303,170.465 L277.661,174.808 L274.020,170.465 L275.053,169.234 L277.661,172.344 L280.270,169.234 L281.303,170.465 Z" class="cls-10"/>
  <text transform="translate(11 206) scale(0.53 0.53)" class="cls-3"><tspan class="cls-4">Package:</tspan></text>
  <text transform="translate(11 245) scale(0.53 0.53)" class="cls-3"><tspan class="cls-4">Properties available from archetype:</tspan></text>
  <text transform="translate(115 206) scale(0.53 0.53)" class="cls-3"><tspan class="cls-4">TestApp.SimpleConsoleApp</tspan></text>
  <text transform="translate(19 278) scale(0.53 0.53)" class="cls-3"><tspan class="cls-4">Name</tspan></text>
  <text transform="translate(117 278) scale(0.53 0.53)" class="cls-3"><tspan class="cls-4">Value</tspan></text>
  <path d="M269.000,252.000 L270.000,252.000 L270.000,439.000 L269.000,439.000 L269.000,252.000 Z" class="cls-21"/>
  <path d="M1.000,28.000 L1.000,27.000 L739.000,27.000 L739.000,28.000 L1.000,28.000 Z" class="cls-9"/>
  <path d="M1.000,515.000 L1.000,514.000 L739.000,514.000 L739.000,515.000 L1.000,515.000 Z" class="cls-9"/>
  <path d="M106.000,252.000 L107.000,252.000 L107.000,439.000 L106.000,439.000 L106.000,252.000 Z" class="cls-21"/>
  <text transform="translate(115 124) scale(0.53 0.53)" class="cls-3"><tspan class="cls-4">TestApp</tspan></text>
  <text transform="translate(114 179) scale(0.53 0.53)" class="cls-3"><tspan class="cls-4">0.0.1-SNAPSHOT</tspan></text>
</svg>
