<?xml version="1.0" encoding="utf-8" standalone="no" ?>
<svg xmlns="http://www.w3.org/2000/svg" xmlns:xlink="http://www.w3.org/1999/xlink" preserveAspectRatio="xMidYMid" width="430" height="420" viewBox="0 0 850 830">
  <defs>
    <style>
      .cls-1 {
        fill: #f0f0f0;
        stroke: #dcdcdc;
      }

      .cls-1, .cls-12, .cls-3, .cls-4, .cls-7, .cls-9 {
        stroke-linejoin: round;
      }

      .cls-1, .cls-3, .cls-4, .cls-7, .cls-9 {
        stroke-width: 2px;
      }

      .cls-2, .cls-3, .cls-4 {
        fill: #fff;
      }

      .cls-12, .cls-13, .cls-2, .cls-3, .cls-4, .cls-5, .cls-6, .cls-7, .cls-8, .cls-9 {
        fill-rule: evenodd;
      }

      .cls-3 {
        stroke: #e2e2e2;
      }

      .cls-4 {
        stroke: #99d5f8;
      }

      .cls-16, .cls-5 {
        fill: #cfcdcd;
      }

      .cls-6 {
        fill: #141414;
      }

      .cls-7 {
        fill: #f9f9f9;
        stroke: #141414;
      }

      .cls-8 {
        fill: #e2e2e2;
      }

      .cls-9 {
        fill: #ddd;
        stroke: #7f7f7f;
      }

      .cls-10, .cls-11 {
        font-size: 32.869px;
      }

      .cls-11 {
        fill: #404040;
        font-family: 'Segoe UI', Tahoma, Geneva, Verdana, sans-serif;
      }

      .cls-12 {
        fill: #c4e5f6;
        stroke: #4d84aa;
        stroke-width: 1px;
      }

      .cls-13 {
        fill: #7f7f7f;
      }

      .cls-14, .cls-15, .cls-16 {
        font-size: 25.043px;
      }

      .cls-15 {
        fill: #1f1f1f;
      }

      .cls-15, .cls-16 {
        font-family: 'Segoe UI', Tahoma, Geneva, Verdana, sans-serif;
      }
    </style>
  </defs>
  <rect width="850" height="830" class="cls-1"/>
  <path d="M3.944,5.914 L846.056,5.914 L846.056,43.373 L3.944,43.373 L3.944,5.914 Z" class="cls-2"/>
  <path d="M29.582,429.786 L822.390,429.786 L822.390,672.280 L29.582,672.280 L29.582,429.786 Z" class="cls-3"/>
  <path d="M29.582,295.724 L822.390,295.724 L822.390,329.240 L29.582,329.240 L29.582,295.724 Z" class="cls-4"/>
  <path d="M151.856,181.378 L566.009,181.378 L566.009,214.893 L151.856,214.893 L151.856,181.378 Z" class="cls-3"/>
  <path d="M672.506,181.378 L820.418,181.378 L820.418,214.893 L672.506,214.893 L672.506,181.378 Z" class="cls-5"/>
  <path d="M151.856,134.062 L566.009,134.062 L566.009,167.577 L151.856,167.577 L151.856,134.062 Z" class="cls-3"/>
  <path d="M151.856,88.717 L566.009,88.717 L566.009,122.233 L151.856,122.233 L151.856,88.717 Z" class="cls-3"/>
  <path d="M700.609,22.303 L713.551,22.303 L713.551,23.843 L700.609,23.843 L700.609,22.303 Z" class="cls-6"/>
  <path d="M813.798,29.244 L826.335,15.840 L827.452,16.885 L814.915,30.289 L813.798,29.244 Z" class="cls-6"/>
  <path d="M827.500,29.667 L814.875,16.175 L813.750,17.227 L826.375,30.719 L827.500,29.667 Z" class="cls-6"/>
  <path d="M757.925,17.743 L768.648,17.743 L768.648,27.663 L757.925,27.663 L757.925,17.743 Z" class="cls-7"/>
  <path d="M29.565,242.510 L29.565,240.511 L822.408,240.511 L822.408,242.510 L29.565,242.510 Z" class="cls-8"/>
  <path d="M607.794,755.268 L807.414,755.268 L807.414,804.124 L607.794,804.124 L607.794,755.268 Z" class="cls-9"/>
  <text transform="translate(672 788) scale(0.74 0.74)" class="cls-10"><tspan class="cls-11">Cancel</tspan></text>
  <path d="M396.589,755.268 L596.270,755.268 L596.270,804.124 L396.589,804.124 L396.589,755.268 Z" class="cls-12"/>
  <text transform="translate(479 788) scale(0.74 0.74)" class="cls-10"><tspan class="cls-11">OK</tspan></text>
  <path d="M-209.584,44.168 L-209.584,42.732 L850.536,42.732 L850.536,44.168 L-209.584,44.168 Z" class="cls-8"/>
  <path d="M793.091,198.127 L799.563,204.864 L806.036,198.127 L804.199,196.215 L799.563,201.041 L794.927,196.215 L793.091,198.127 Z" class="cls-13"/>
  <text transform="translate(17 33) scale(1.05 1.05)" class="cls-14"><tspan class="cls-15">Select Dependencies</tspan></text>
  <text transform="translate(30 417) scale(1.05 1.05)" class="cls-14"><tspan class="cls-15">Search Results:</tspan></text>
  <text transform="translate(30 279) scale(1.05 1.05)" class="cls-14"><tspan class="cls-15">Enter groupId, artifactId or sha1 prefix or pattern(*):</tspan></text>
  <text transform="translate(30 364) scale(1.05 1.05)" class="cls-14"><tspan class="cls-16">index downloads are disabled, search results may be incomplete.</tspan></text>
  <text transform="translate(30 116) scale(1.05 1.05)" class="cls-14"><tspan class="cls-15">Group Id:</tspan></text>
  <text transform="translate(30 161) scale(1.05 1.05)" class="cls-14"><tspan class="cls-15">Artifact Id:</tspan></text>
  <text transform="translate(30 206) scale(1.05 1.05)" class="cls-14"><tspan class="cls-15">Version:</tspan></text>
  <text transform="translate(161 116) scale(1.05 1.05)" class="cls-14"><tspan class="cls-15">TSPublicRestAPILib</tspan></text>
  <text transform="translate(161 161) scale(1.05 1.05)" class="cls-14"><tspan class="cls-15">TSPublicRestAPILib</tspan></text>
  <text transform="translate(161 206) scale(1.05 1.05)" class="cls-14"><tspan class="cls-15">0.0.1-SNAPSHOT</tspan></text>
  <text transform="translate(585 206) scale(1.05 1.05)" class="cls-14"><tspan class="cls-15">Scope:</tspan></text>
  <text transform="translate(689 206) scale(1.05 1.05)" class="cls-14"><tspan class="cls-15">compile</tspan></text>
</svg>
