<?xml version="1.0" encoding="UTF-8" standalone="no" ?>
<svg xmlns="http://www.w3.org/2000/svg" xmlns:xlink="http://www.w3.org/1999/xlink" preserveAspectRatio="xMidYMid" width="1020" height="690" viewBox="0 0 1500 1014">
  <defs>
    <style>
      .cls-1, .cls-13, .cls-20, .cls-8 {
        fill: #f0f0f0;
      }

      .cls-1, .cls-13, .cls-20, .cls-21, .cls-7 {
        stroke: #dcdcdc;
      }

      .cls-1, .cls-13, .cls-20, .cls-21, .cls-24, .cls-28, .cls-29, .cls-30, .cls-31, .cls-33, .cls-35, .cls-36, .cls-37, .cls-38, .cls-41, .cls-42, .cls-43, .cls-45, .cls-47, .cls-49, .cls-50, .cls-51, .cls-54, .cls-60, .cls-61, .cls-64, .cls-65, .cls-7 {
        stroke-linejoin: round;
      }

      .cls-1 {
        stroke-width: 2px;
      }

      .cls-2, .cls-21, .cls-24, .cls-36, .cls-41, .cls-51, .cls-54, .cls-6, .cls-61, .cls-7 {
        fill: #fff;
      }

      .cls-12, .cls-2, .cls-20, .cls-22, .cls-23, .cls-24, .cls-26, .cls-28, .cls-29, .cls-3, .cls-30, .cls-31, .cls-32, .cls-33, .cls-34, .cls-35, .cls-36, .cls-37, .cls-38, .cls-41, .cls-42, .cls-43, .cls-44, .cls-45, .cls-46, .cls-48, .cls-49, .cls-51, .cls-53, .cls-54, .cls-58, .cls-59, .cls-61, .cls-62, .cls-63, .cls-64, .cls-7, .cls-8 {
        fill-rule: evenodd;
      }

      .cls-3 {
        fill: #cde8ff;
      }

      .cls-10, .cls-25, .cls-27, .cls-4, .cls-5, .cls-55, .cls-56, .cls-57, .cls-71 {
        font-size: 19px;
      }

      .cls-10, .cls-5, .cls-55, .cls-59, .cls-70 {
        fill: #1f1f1f;
      }

      .cls-10, .cls-25, .cls-27, .cls-40, .cls-5 {
        font-family: 'Segoe UI', Tahoma, Geneva, Verdana, sans-serif;
      }

      .cls-13, .cls-20, .cls-21, .cls-24, .cls-28, .cls-29, .cls-30, .cls-31, .cls-35, .cls-36, .cls-37, .cls-38, .cls-41, .cls-42, .cls-43, .cls-45, .cls-47, .cls-49, .cls-50, .cls-51, .cls-54, .cls-60, .cls-61, .cls-64, .cls-65, .cls-7 {
        stroke-width: 1px;
      }

      .cls-9 {
        fill: #c4e5f6;
      }

      .cls-11 {
        fill: #a1a1a1;
      }

      .cls-12 {
        fill: #141414;
      }

      .cls-14 {
        fill: #e2e9f2;
      }

      .cls-15, .cls-16, .cls-17, .cls-19 {
        font-size: 32.766px;
      }

      .cls-16, .cls-18 {
        fill: #174a7e;
      }

      .cls-16, .cls-17, .cls-19, .cls-68, .cls-69, .cls-70 {
        font-family: 'Segoe UI', Tahoma, Geneva, Verdana, sans-serif;
      }

      .cls-17 {
        fill: #44b3f0;
      }

      .cls-19 {
        fill: #2fadef;
      }

      .cls-22 {
        fill: #afaeae;
      }

      .cls-23 {
        fill: #7f7f7f;
      }

      .cls-24 {
        stroke: #d8d8d8;
      }

      .cls-25 {
        fill: #e3e3e3;
      }

      .cls-26 {
        fill: #dcdcdc;
      }

      .cls-27, .cls-58 {
        fill: #dfdddd;
      }

      .cls-28, .cls-46 {
        fill: #f7e5ae;
      }

      .cls-28, .cls-42, .cls-45, .cls-49 {
        stroke: #a3661b;
      }

      .cls-29 {
        fill: #d08447;
        stroke: #a54d1a;
      }

      .cls-30 {
        fill: #59b178;
        stroke: #26925e;
      }

      .cls-31 {
        fill: #e3a628;
        stroke: #bf6718;
      }

      .cls-32 {
        fill: #246380;
      }

      .cls-33, .cls-43 {
        fill: #e2cb9b;
        stroke: #be8257;
      }

      .cls-33 {
        stroke-width: 3px;
      }

      .cls-34 {
        fill: #7f5340;
      }

      .cls-35, .cls-37 {
        fill: #9acbf8;
      }

      .cls-35, .cls-41 {
        stroke: #4f69c2;
      }

      .cls-36 {
        stroke: #989898;
      }

      .cls-37 {
        stroke: #5593e1;
      }

      .cls-38 {
        fill: #fff5a7;
        stroke: #c3b651;
      }

      .cls-39, .cls-40 {
        font-size: 8.752px;
      }

      .cls-40 {
        fill: #6a92b6;
      }

      .cls-42 {
        fill: #f5e5b5;
      }

      .cls-44 {
        fill: #64442c;
      }

      .cls-45 {
        fill: #f5d487;
      }

      .cls-47 {
        fill: #c7d7eb;
      }

      .cls-47, .cls-61 {
        stroke: #738eb4;
      }

      .cls-48 {
        fill: #4f8cc0;
      }

      .cls-49 {
        fill: #fbf4d5;
      }

      .cls-50 {
        fill: #e0e8f0;
      }

      .cls-50, .cls-51 {
        stroke: #8ba0c6;
      }

      .cls-52 {
        fill: #5475ab;
      }

      .cls-53 {
        fill: #7689ab;
      }

      .cls-54 {
        stroke: #6b6b6b;
      }

      .cls-55, .cls-56, .cls-57, .cls-71 {
        font-family: "Courier New";
      }

      .cls-56 {
        fill: #7d8ad2;
      }

      .cls-57 {
        fill: #73a8a1;
      }

      .cls-60 {
        fill: #94bc75;
        stroke: #216e2d;
      }

      .cls-62 {
        fill: #e7d580;
      }

      .cls-63 {
        fill: #5b6c65;
      }

      .cls-64 {
        fill: #d4e5b3;
      }

      .cls-64, .cls-65 {
        stroke: #225660;
      }

      .cls-65 {
        fill: #9dc478;
      }

      .cls-66 {
        fill: #ddd;
      }

      .cls-67, .cls-68, .cls-69, .cls-70 {
        font-size: 32.869px;
      }

      .cls-68 {
        fill: #d9d8d8;
      }

      .cls-69 {
        fill: #cfcdcd;
      }

      .cls-71 {
        fill: #983072;
      }
    </style>
  </defs>
  <rect width="1500" height="1014" class="cls-1"/>
  <path d="M1.875,1.875 L1498.125,1.875 L1498.125,74.159 L1.875,74.159 L1.875,1.875 Z" class="cls-2"/>
  <path d="M1208.828,78.848 L1281.172,78.848 L1281.172,107.019 L1208.828,107.019 L1208.828,78.848 Z" class="cls-3"/>
  <text transform="translate(1228 99) scale(0.94 0.94)" class="cls-4"><tspan class="cls-5">Java </tspan></text>
  <text transform="translate(1302 99) scale(0.94 0.94)" class="cls-4"><tspan class="cls-5">Debug</tspan></text>
  <rect x="381" y="176" width="755" height="594" class="cls-6"/>
  <path d="M0.939,106.094 L147.632,106.094 L147.800,132.383 L375.704,132.383 L375.704,983.956 L0.939,983.956 L0.939,106.094 Z" class="cls-7"/>
  <path d="M1165.623,45.067 L1165.623,44.128 L1500.000,44.128 L1500.000,45.067 L1165.623,45.067 Z" class="cls-8"/>
  <text transform="translate(15 127) scale(0.94 0.94)" class="cls-4"><tspan class="cls-5">Package Explorer</tspan></text>
  <text transform="translate(15 63) scale(0.94 0.94)" class="cls-4"><tspan class="cls-5">File</tspan></text>
  <text transform="translate(61 63) scale(0.94 0.94)" class="cls-4"><tspan class="cls-5">Edit</tspan></text>
  <text transform="translate(33 25) scale(0.94 0.94)" class="cls-4"><tspan class="cls-5">Java - Eclipse</tspan></text>
  <text transform="translate(114 63) scale(0.94 0.94)" class="cls-4"><tspan class="cls-5">Navigate</tspan></text>
  <rect x="395" y="470" width="741" height="22" class="cls-9"/>
  <text transform="translate(202 63) scale(0.94 0.94)" class="cls-4"><tspan class="cls-5">Search</tspan></text>
  <text transform="translate(284 63) scale(0.94 0.94)" class="cls-4"><tspan class="cls-5">Project</tspan></text>
  <text transform="translate(367 63) scale(0.94 0.94)" class="cls-4"><tspan class="cls-5">Run</tspan></text>
  <text transform="translate(421 63) scale(0.94 0.94)" class="cls-4"><tspan class="cls-5">Window</tspan></text>
  <text transform="translate(503 63) scale(0.94 0.94)" class="cls-4"><tspan class="cls-5">Help</tspan></text>
  <text transform="translate(52 158) scale(1.13 1.13)" class="cls-4"><tspan class="cls-5">Project1</tspan></text>
  <text transform="translate(52 184) scale(1.13 1.13)" class="cls-4"><tspan class="cls-5">TSPublicRestAPILib</tspan></text>
  <text transform="translate(81 210) scale(1.13 1.13)" class="cls-4"><tspan class="cls-5">src</tspan></text>
  <text transform="translate(80 390) scale(1.13 1.13)" class="cls-4"><tspan class="cls-4"><tspan class="cls-10">JRE System Library <tspan class="cls-11">[JavaSE-1.7]</tspan></tspan></tspan></text>
  <text transform="translate(80 416) scale(1.13 1.13)" class="cls-4"><tspan class="cls-5">Maven Dependencies</tspan></text>
  <text transform="translate(80 442) scale(1.13 1.13)" class="cls-4"><tspan class="cls-5">target</tspan></text>
  <text transform="translate(80 468) scale(1.13 1.13)" class="cls-4"><tspan class="cls-5">pom.xml</tspan></text>
  <path d="M1314.062,22.545 L1330.000,22.545 L1330.000,24.420 L1314.062,24.420 L1314.062,22.545 Z" class="cls-12"/>
  <path d="M1453.103,31.057 L1468.506,14.604 L1469.877,15.887 L1454.475,32.340 L1453.103,31.057 Z" class="cls-12"/>
  <path d="M1469.936,31.577 L1454.426,15.015 L1453.045,16.306 L1468.555,32.869 L1469.936,31.577 Z" class="cls-12"/>
  <rect x="1165" y="110" width="333" height="693" class="cls-13"/>
  <rect x="1166" y="365" width="330.03" height="75" rx="5" ry="5" class="cls-14"/>
  <text transform="translate(1177 386) scale(0.5 0.49)" class="cls-15"><tspan class="cls-16">Connect Mylyn</tspan></text>
  <text transform="translate(1177 412) scale(0.5 0.49)" class="cls-15"><tspan class="cls-15"><tspan class="cls-17">Connect<tspan class="cls-18"> to your task and ALM tools or</tspan></tspan></tspan><tspan dy="1.2em" x="0" class="cls-15"><tspan class="cls-19">create<tspan class="cls-18"> a local task.</tspan></tspan></tspan></text>
  <path d="M379.453,834.659 L1499.062,834.659 L1499.062,865.643 L379.453,865.643 L379.453,834.659 Z" class="cls-20"/>
  <rect x="1165" y="446" width="333" height="301" class="cls-21"/>
  <path d="M379.453,805.589 L1499.062,805.589 L1499.062,836.534 L379.453,836.534 L379.453,805.589 Z" class="cls-20"/>
  <rect x="380" y="147" width="781" height="31" class="cls-13"/>
  <path d="M37.122,404.148 L43.307,409.801 L37.122,415.455 L35.367,413.851 L39.798,409.801 L35.367,405.752 L37.122,404.148 Z" class="cls-22"/>
  <path d="M37.122,378.144 L43.307,383.797 L37.122,389.450 L35.367,387.846 L39.798,383.797 L35.367,379.748 L37.122,378.144 Z" class="cls-22"/>
  <path d="M41.994,203.759 L36.494,209.997 L30.994,203.759 L32.554,201.989 L36.494,206.457 L40.433,201.989 L41.994,203.759 Z" class="cls-23"/>
  <path d="M1053.828,77.910 L1173.125,77.910 L1173.125,107.019 L1053.828,107.019 L1053.828,77.910 Z" class="cls-24"/>
  <text transform="translate(392 827) scale(0.94 0.94)" class="cls-4"><tspan class="cls-25">Problems</tspan></text>
  <rect x="690" y="807" width="100" height="30" class="cls-6"/>
  <text transform="translate(401 857) scale(0.94 0.94)" class="cls-4"><tspan class="cls-25">No Consoles to display at this time.</tspan></text>
  <text transform="translate(486 827) scale(0.94 0.94)" class="cls-4"><tspan class="cls-25">Javadoc</tspan></text>
  <text transform="translate(576 827) scale(0.94 0.94)" class="cls-4"><tspan class="cls-25">Declaration</tspan></text>
  <text transform="translate(712 827) scale(0.94 0.94)" class="cls-4"><tspan class="cls-5">Console</tspan></text>
  <rect x="381" y="148" width="91" height="30" class="cls-6"/>
  <path d="M472.448,806.506 L473.388,806.506 L473.388,835.611 L472.448,835.611 L472.448,806.506 Z" class="cls-26"/>
  <path d="M559.828,806.506 L560.767,806.506 L560.767,835.611 L559.828,835.611 L559.828,806.506 Z" class="cls-26"/>
  <path d="M688.726,806.506 L689.665,806.506 L689.665,835.611 L688.726,835.611 L688.726,806.506 Z" class="cls-26"/>
  <path d="M790.003,806.506 L790.942,806.506 L790.942,835.611 L790.003,835.611 L790.003,806.506 Z" class="cls-26"/>
  <text transform="translate(1216 136) scale(0.94 0.94)" class="cls-4"><tspan class="cls-5">Task List</tspan></text>
  <text transform="translate(1182 471) scale(0.94 0.94)" class="cls-4"><tspan class="cls-5">Outline</tspan></text>
  <text transform="translate(1212 502) scale(0.94 0.94)" class="cls-4"><tspan class="cls-27">TestApp.SimpleConsoleApp</tspan></text>
  <text transform="translate(1198 526) scale(0.94 0.94)" class="cls-4"><tspan class="cls-27">App</tspan></text>
  <text transform="translate(1212 550) scale(0.94 0.94)" class="cls-4"><tspan class="cls-27">main(String[]):void</tspan></text>
  <path d="M18.860,177.983 L13.189,184.148 L7.517,177.983 L9.126,176.234 L13.189,180.650 L17.251,176.234 L18.860,177.983 Z" class="cls-23"/>
  <path d="M54.655,433.357 L54.655,441.787 L67.940,441.787 L67.940,433.357 L61.901,433.357 L61.901,430.949 L55.863,430.949 L55.863,433.357 L54.655,433.357 Z" class="cls-28"/>
  <path d="M53.437,411.658 L67.930,411.658 L67.930,417.675 L53.437,417.675 L53.437,411.658 Z" class="cls-29"/>
  <path d="M54.687,406.852 L66.758,406.852 L66.758,411.658 L54.687,411.658 L54.687,406.852 Z" class="cls-30"/>
  <path d="M65.611,399.023 L74.808,415.968 L72.683,417.114 L63.487,400.169 L65.611,399.023 Z" class="cls-31"/>
  <path d="M53.437,404.469 L63.125,404.469 L63.125,406.852 L53.437,406.852 L53.437,404.469 Z" class="cls-32"/>
  <path d="M53.437,386.066 L67.930,386.066 L67.930,392.083 L53.437,392.083 L53.437,386.066 Z" class="cls-29"/>
  <path d="M54.687,381.260 L66.758,381.260 L66.758,386.066 L54.687,386.066 L54.687,381.260 Z" class="cls-30"/>
  <path d="M65.611,373.427 L74.808,390.372 L72.683,391.519 L63.487,374.573 L65.611,373.427 Z" class="cls-31"/>
  <path d="M53.437,378.876 L63.125,378.876 L63.125,381.260 L53.437,381.260 L53.437,378.876 Z" class="cls-32"/>
  <path d="M265.608,84.468 L280.077,84.468 L280.077,98.419 L265.608,98.419 L265.608,84.468 Z" class="cls-33"/>
  <path d="M263.988,92.221 L263.988,90.667 L281.739,90.667 L281.739,92.221 L263.988,92.221 Z" class="cls-34"/>
  <path d="M272.057,82.894 L273.670,82.894 L273.670,99.994 L272.057,99.994 L272.057,82.894 Z" class="cls-34"/>
  <path d="M28.087,175.043 L28.087,183.473 L41.371,183.473 L41.371,175.043 L35.333,175.043 L35.333,172.635 L29.294,172.635 L29.294,175.043 L28.087,175.043 Z" class="cls-35"/>
  <path d="M28.087,150.319 L28.087,158.748 L41.371,158.748 L41.371,150.319 L35.333,150.319 L35.333,147.910 L29.294,147.910 L29.294,150.319 L28.087,150.319 Z" class="cls-36"/>
  <path d="M28.087,150.319 L28.087,158.748 L41.371,158.748 L41.371,150.319 L28.087,150.319 Z" class="cls-37"/>
  <path d="M41.371,177.452 L35.333,171.430 L29.294,177.452 L35.333,183.473 L41.371,177.452 Z" class="cls-38"/>
  <path d="M46.504,178.656 L35.635,178.656 L30.804,183.473 L41.673,183.473 L46.504,178.656 Z" class="cls-35"/>
  <text transform="translate(40 177) scale(1.21 1.2)" class="cls-39"><tspan class="cls-40">J</tspan></text>
  <path d="M235.087,88.043 L235.087,96.473 L248.371,96.473 L248.371,88.043 L242.333,88.043 L242.333,85.635 L236.294,85.635 L236.294,88.043 L235.087,88.043 Z" class="cls-41"/>
  <path d="M253.504,91.656 L242.635,91.656 L237.804,96.473 L248.673,96.473 L253.504,91.656 Z" class="cls-35"/>
  <path d="M55.071,201.127 L55.071,209.557 L68.355,209.557 L68.355,201.127 L62.317,201.127 L62.317,198.719 L56.278,198.719 L56.278,201.127 L55.071,201.127 Z" class="cls-42"/>
  <path d="M58.586,197.424 L68.469,197.424 L68.469,207.231 L58.586,207.231 L58.586,197.424 Z" class="cls-43"/>
  <path d="M57.486,202.879 L57.486,201.784 L69.563,201.784 L69.563,202.879 L57.486,202.879 Z" class="cls-44"/>
  <path d="M62.975,196.310 L64.073,196.310 L64.073,208.353 L62.975,208.353 L62.975,196.310 Z" class="cls-44"/>
  <path d="M73.488,204.740 L62.619,204.740 L57.788,209.557 L68.657,209.557 L73.488,204.740 Z" class="cls-45"/>
  <path d="M428.459,782.008 L422.995,786.503 L428.459,790.998 L430.009,789.723 L426.095,786.503 L430.009,783.283 L428.459,782.008 Z" class="cls-22"/>
  <path d="M1102.541,782.008 L1108.004,786.503 L1102.541,790.998 L1100.991,789.723 L1104.905,786.503 L1100.991,783.283 L1102.541,782.008 Z" class="cls-22"/>
  <path d="M1153.992,749.541 L1149.497,755.004 L1145.002,749.541 L1146.277,747.991 L1149.497,751.905 L1152.717,747.991 L1153.992,749.541 Z" class="cls-22"/>
  <path d="M1153.992,218.459 L1149.497,212.995 L1145.002,218.459 L1146.277,220.009 L1149.497,216.095 L1152.717,220.009 L1153.992,218.459 Z" class="cls-22"/>
  <path d="M73.488,436.740 L62.619,436.740 L57.788,441.557 L68.657,441.557 L73.488,436.740 Z" class="cls-45"/>
  <rect x="28" y="86" width="16" height="12" class="cls-6"/>
  <path d="M43.000,89.000 C43.000,89.000 40.674,98.000 28.000,98.000 L28.000,97.000 C28.000,97.000 39.912,96.167 41.000,89.000 L43.000,89.000 Z" class="cls-46"/>
  <rect x="70" y="85" width="13" height="13" rx="1" ry="1" class="cls-47"/>
  <path d="M43.203,99.000 L27.797,99.000 C27.357,99.000 27.000,98.640 27.000,98.196 L27.000,84.804 C27.000,84.360 27.357,84.000 27.797,84.000 L43.203,84.000 C43.643,84.000 44.000,84.360 44.000,84.804 L44.000,98.196 C44.000,98.640 43.643,99.000 43.203,99.000 ZM43.203,87.214 L42.406,87.214 L28.594,87.214 L27.797,87.214 L27.797,98.196 L43.203,98.196 L43.203,87.214 Z" class="cls-48"/>
  <text transform="translate(238 90) scale(1.21 1.2)" class="cls-39"><tspan class="cls-40">J</tspan></text>
  <path d="M248.000,81.000 C248.000,81.000 247.900,85.909 252.000,85.909 C252.000,85.909 248.000,86.135 248.000,90.000 C248.000,90.000 247.491,85.909 244.000,85.909 C244.000,85.909 248.100,84.864 248.000,81.000 Z" class="cls-49"/>
  <rect x="99" y="556" width="114" height="25" class="cls-9"/>
  <path d="M278.325,82.000 C278.325,82.000 278.233,86.357 282.000,86.357 C282.000,86.357 278.325,86.557 278.325,89.988 C278.325,89.988 277.857,86.357 274.651,86.357 C274.651,86.357 278.417,85.430 278.325,82.000 Z" class="cls-49"/>
  <rect x="118" y="89" width="14" height="6" class="cls-50"/>
  <path d="M122.000,85.000 L122.000,93.000 L129.000,93.000 L129.000,88.000 L126.000,88.000 L126.000,85.000 L122.000,85.000 Z" class="cls-51"/>
  <rect x="119" y="96" width="12" height="3" class="cls-52"/>
  <path d="M123.000,92.000 L123.000,91.000 L128.000,91.000 L128.000,92.000 L123.000,92.000 Z" class="cls-53"/>
  <path d="M123.000,90.000 L123.000,89.000 L128.000,89.000 L128.000,90.000 L123.000,90.000 Z" class="cls-53"/>
  <path d="M56.000,456.000 L56.000,471.000 L66.000,471.000 L66.000,460.347 L61.714,460.347 L61.714,456.000 L56.000,456.000 Z" class="cls-54"/>
  <text transform="translate(131 575) scale(1.13 1.13)" class="cls-4"><tspan class="cls-5">App.java</tspan></text>
  <path d="M107.000,562.000 L107.000,577.000 L117.000,577.000 L117.000,566.347 L112.714,566.347 L112.714,562.000 L107.000,562.000 Z" class="cls-54"/>
  <text transform="translate(52 497) scale(1.13 1.13)" class="cls-4"><tspan class="cls-5">SimpleConsoleApp</tspan></text>
  <text transform="translate(81 523) scale(1.13 1.13)" class="cls-4"><tspan class="cls-5">src/main/java</tspan></text>
  <text transform="translate(442 464) scale(0.99 0.99)" class="cls-4"><tspan class="cls-55">{</tspan></text>
  <text transform="translate(488 487) scale(0.99 0.99)" class="cls-4"><tspan class="cls-56">//TODO:</tspan></text>
  <text transform="translate(576 487) scale(0.99 0.99)" class="cls-4"><tspan class="cls-57">Add sample code to use the library</tspan></text>
  <text transform="translate(442 512) scale(0.99 0.99)" class="cls-4"><tspan class="cls-55">}</tspan></text>
  <text transform="translate(399 535) scale(0.99 0.99)" class="cls-4"><tspan class="cls-55">}</tspan></text>
  <text transform="translate(80 627) scale(1.13 1.13)" class="cls-4"><tspan class="cls-4"><tspan class="cls-10">JRE System Library <tspan class="cls-11">[J2SE-1.5]</tspan></tspan></tspan></text>
  <text transform="translate(80 653) scale(1.13 1.13)" class="cls-4"><tspan class="cls-5">Maven Dependencies</tspan></text>
  <text transform="translate(80 679) scale(1.13 1.13)" class="cls-4"><tspan class="cls-5">src</tspan></text>
  <text transform="translate(80 731) scale(1.13 1.13)" class="cls-4"><tspan class="cls-5">pom.xml</tspan></text>
  <path d="M37.122,641.148 L43.307,646.801 L37.122,652.455 L35.367,650.851 L39.798,646.801 L35.367,642.752 L37.122,641.148 Z" class="cls-22"/>
  <path d="M37.122,668.148 L43.307,673.801 L37.122,679.455 L35.367,677.851 L39.798,673.801 L35.367,669.752 L37.122,668.148 Z" class="cls-22"/>
  <path d="M1189.008,518.760 L1183.511,524.994 L1178.014,518.760 L1179.573,516.992 L1183.511,521.457 L1187.448,516.992 L1189.008,518.760 Z" class="cls-58"/>
  <path d="M37.122,615.144 L43.307,620.797 L37.122,626.450 L35.367,624.846 L39.798,620.797 L35.367,616.748 L37.122,615.144 Z" class="cls-22"/>
  <path d="M37.122,590.144 L43.307,595.797 L37.122,601.450 L35.367,599.846 L39.798,595.797 L35.367,591.748 L37.122,590.144 Z" class="cls-22"/>
  <path d="M84.121,564.144 L90.307,569.797 L84.121,575.450 L82.367,573.846 L86.798,569.797 L82.367,565.748 L84.121,564.144 Z" class="cls-22"/>
  <path d="M41.994,516.759 L36.494,522.997 L30.994,516.759 L32.554,514.989 L36.494,519.457 L40.433,514.989 L41.994,516.759 Z" class="cls-23"/>
  <path d="M18.860,490.983 L13.189,497.148 L7.517,490.983 L9.126,489.234 L13.189,493.650 L17.251,489.234 L18.860,490.983 Z" class="cls-23"/>
  <path d="M54.655,670.357 L54.655,678.787 L67.940,678.787 L67.940,670.357 L61.901,670.357 L61.901,667.949 L55.863,667.949 L55.863,670.357 L54.655,670.357 Z" class="cls-28"/>
  <path d="M53.437,648.658 L67.930,648.658 L67.930,654.675 L53.437,654.675 L53.437,648.658 Z" class="cls-29"/>
  <path d="M54.687,643.852 L66.758,643.852 L66.758,648.658 L54.687,648.658 L54.687,643.852 Z" class="cls-30"/>
  <path d="M65.611,636.023 L74.808,652.968 L72.683,654.114 L63.487,637.169 L65.611,636.023 Z" class="cls-31"/>
  <path d="M53.437,641.469 L63.125,641.469 L63.125,643.852 L53.437,643.852 L53.437,641.469 Z" class="cls-32"/>
  <path d="M53.437,623.066 L67.930,623.066 L67.930,629.083 L53.437,629.083 L53.437,623.066 Z" class="cls-29"/>
  <path d="M54.687,618.260 L66.758,618.260 L66.758,623.066 L54.687,623.066 L54.687,618.260 Z" class="cls-30"/>
  <path d="M65.611,610.427 L74.808,627.372 L72.683,628.519 L63.487,611.573 L65.611,610.427 Z" class="cls-31"/>
  <path d="M53.437,615.876 L63.125,615.876 L63.125,618.260 L53.437,618.260 L53.437,615.876 Z" class="cls-32"/>
  <path d="M28.087,488.043 L28.087,496.473 L41.371,496.473 L41.371,488.043 L35.333,488.043 L35.333,485.635 L29.294,485.635 L29.294,488.043 L28.087,488.043 Z" class="cls-35"/>
  <path d="M41.371,490.452 L35.333,484.430 L29.294,490.452 L35.333,496.473 L41.371,490.452 Z" class="cls-38"/>
  <path d="M46.504,491.656 L35.635,491.656 L30.804,496.473 L41.673,496.473 L46.504,491.656 Z" class="cls-35"/>
  <text transform="translate(40 490) scale(1.21 1.2)" class="cls-39"><tspan class="cls-40">J</tspan></text>
  <path d="M55.071,514.127 L55.071,522.557 L68.355,522.557 L68.355,514.127 L62.317,514.127 L62.317,511.719 L56.278,511.719 L56.278,514.127 L55.071,514.127 Z" class="cls-42"/>
  <path d="M58.586,510.424 L68.469,510.424 L68.469,520.231 L58.586,520.231 L58.586,510.424 Z" class="cls-43"/>
  <path d="M57.486,515.879 L57.486,514.784 L69.563,514.784 L69.563,515.879 L57.486,515.879 Z" class="cls-44"/>
  <path d="M62.975,509.310 L64.073,509.310 L64.073,521.353 L62.975,521.353 L62.975,509.310 Z" class="cls-44"/>
  <path d="M73.488,517.740 L62.619,517.740 L57.788,522.557 L68.657,522.557 L73.488,517.740 Z" class="cls-45"/>
  <text transform="translate(105 549) scale(1.13 1.13)" class="cls-4"><tspan class="cls-5">TestApp.SimpleConsoleApp</tspan></text>
  <path d="M65.994,541.759 L60.494,547.997 L54.994,541.759 L56.554,539.989 L60.494,544.457 L64.433,539.989 L65.994,541.759 Z" class="cls-23"/>
  <path d="M73.488,673.740 L62.619,673.740 L57.788,678.557 L68.657,678.557 L73.488,673.740 Z" class="cls-45"/>
  <text transform="translate(80 705) scale(1.13 1.13)" class="cls-4"><tspan class="cls-5">target</tspan></text>
  <path d="M54.655,696.357 L54.655,704.787 L67.940,704.787 L67.940,696.357 L61.901,696.357 L61.901,693.949 L55.863,693.949 L55.863,696.357 L54.655,696.357 Z" class="cls-28"/>
  <path d="M73.488,699.740 L62.619,699.740 L57.788,704.557 L68.657,704.557 L73.488,699.740 Z" class="cls-45"/>
  <path d="M56.000,719.000 L56.000,734.000 L66.000,734.000 L66.000,723.347 L61.714,723.347 L61.714,719.000 L56.000,719.000 Z" class="cls-54"/>
  <text transform="translate(81 601) scale(1.13 1.13)" class="cls-4"><tspan class="cls-5">src/test/java</tspan></text>
  <path d="M55.071,592.127 L55.071,600.557 L68.355,600.557 L68.355,592.127 L62.317,592.127 L62.317,589.719 L56.278,589.719 L56.278,592.127 L55.071,592.127 Z" class="cls-42"/>
  <path d="M58.586,588.424 L68.469,588.424 L68.469,598.231 L58.586,598.231 L58.586,588.424 Z" class="cls-43"/>
  <path d="M57.486,592.879 L57.486,591.784 L69.563,591.784 L69.563,592.879 L57.486,592.879 Z" class="cls-44"/>
  <path d="M62.975,587.310 L64.073,587.310 L64.073,599.353 L62.975,599.353 L62.975,587.310 Z" class="cls-44"/>
  <path d="M56.508,94.998 L53.007,88.998 L60.008,88.998 L56.508,94.998 Z" class="cls-59"/>
  <path d="M180.508,94.998 L177.007,88.998 L184.008,88.998 L180.508,94.998 Z" class="cls-59"/>
  <path d="M221.508,94.998 L218.007,88.998 L225.008,88.998 L221.508,94.998 Z" class="cls-59"/>
  <path d="M42.000,80.000 C42.000,80.000 41.900,84.909 46.000,84.909 C46.000,84.909 42.000,85.135 42.000,89.000 C42.000,89.000 41.491,84.909 38.000,84.909 C38.000,84.909 42.100,83.864 42.000,80.000 Z" class="cls-49"/>
  <circle cx="200.5" cy="91.5" r="6.5" class="cls-60"/>
  <path d="M205.431,91.468 L198.515,95.461 L198.515,87.475 L205.431,91.468 Z" class="cls-2"/>
  <path d="M80.000,85.000 L80.000,91.000 L73.000,91.000 L73.000,85.000 L80.000,85.000 Z" class="cls-61"/>
  <path d="M73.000,91.000 L73.000,90.000 L80.000,90.000 L80.000,91.000 L73.000,91.000 Z" class="cls-62"/>
  <rect x="94" y="85" width="9.938" height="9.938" rx="1" ry="1" class="cls-47"/>
  <path d="M79.000,94.000 L79.000,98.000 L74.000,98.000 L74.000,94.000 L79.000,94.000 Z" class="cls-61"/>
  <rect x="95.531" y="86.531" width="9.938" height="9.938" rx="1" ry="1" class="cls-47"/>
  <rect x="97.063" y="88.063" width="9.938" height="9.938" rx="1" ry="1" class="cls-47"/>
  <path d="M104.706,88.059 L104.706,92.647 L99.353,92.647 L99.353,88.059 L104.706,88.059 Z" class="cls-61"/>
  <path d="M103.941,94.941 L103.941,98.000 L100.118,98.000 L100.118,94.941 L103.941,94.941 Z" class="cls-61"/>
  <path d="M99.353,92.647 L99.353,91.882 L104.706,91.882 L104.706,92.647 L99.353,92.647 Z" class="cls-62"/>
  <path d="M169.000,95.000 L166.000,94.000 C166.000,94.000 166.223,96.755 163.000,97.000 L162.000,97.000 L161.000,99.000 L160.000,99.000 L160.000,100.000 L158.000,100.000 L158.000,99.000 L159.000,99.000 L159.000,96.000 L157.000,96.000 L156.000,97.000 L155.000,97.000 L155.000,96.000 L156.000,95.000 L156.000,93.000 L155.000,93.000 L155.000,92.000 L153.000,92.000 L153.000,90.000 L155.000,90.000 L155.000,91.000 L156.000,91.000 L156.000,89.000 L153.000,89.000 L153.000,87.000 L156.000,87.000 L157.000,84.000 L159.000,84.000 L159.000,86.000 L160.000,87.000 L161.000,85.000 L163.000,85.000 L163.000,87.000 L163.000,88.000 L166.000,88.000 L167.000,89.000 L168.000,89.000 L168.000,90.000 L168.000,91.000 L165.000,91.000 L166.000,92.000 L167.000,92.000 L169.000,93.000 L169.000,95.000 Z" class="cls-63"/>
  <path d="M158.982,89.892 C160.485,88.675 162.829,89.080 164.220,90.797 C165.322,92.158 165.494,93.935 164.769,95.219 C164.679,95.378 164.575,95.530 164.457,95.673 C164.328,95.830 162.163,92.868 162.000,93.000 C161.830,93.138 163.666,96.363 163.477,96.460 C161.996,97.216 160.013,96.725 158.780,95.203 C157.390,93.486 157.480,91.108 158.982,89.892 Z" class="cls-64"/>
  <circle cx="158.5" cy="89.5" r="1.5" class="cls-65"/>
  <circle cx="18" cy="80" r="1" class="cls-66"/>
  <circle cx="18" cy="84" r="1" class="cls-66"/>
  <circle cx="18" cy="88" r="1" class="cls-66"/>
  <circle cx="18" cy="92" r="1" class="cls-66"/>
  <circle cx="18" cy="96" r="1" class="cls-66"/>
  <circle cx="18" cy="100" r="1" class="cls-66"/>
  <circle cx="143" cy="80" r="1" class="cls-66"/>
  <circle cx="143" cy="84" r="1" class="cls-66"/>
  <circle cx="143" cy="88" r="1" class="cls-66"/>
  <circle cx="143" cy="92" r="1" class="cls-66"/>
  <circle cx="143" cy="96" r="1" class="cls-66"/>
  <path d="M73.488,595.740 L62.619,595.740 L57.788,600.557 L68.657,600.557 L73.488,595.740 Z" class="cls-45"/>
  <text transform="translate(478 169) scale(0.5 0.49)" class="cls-67"><tspan class="cls-68">*SimpleConsoleApp/pom.xml</tspan></text>
  <text transform="translate(720 169) scale(0.5 0.49)" class="cls-67"><tspan class="cls-69">TSPublicRestAPILib/pom.xml</tspan></text>
  <text transform="translate(390 169) scale(0.5 0.49)" class="cls-67"><tspan class="cls-70">*App.java</tspan></text>
  <path d="M711.000,148.000 L712.000,148.000 L712.000,178.000 L711.000,178.000 L711.000,148.000 Z" class="cls-26"/>
  <path d="M472.000,148.000 L473.000,148.000 L473.000,178.000 L472.000,178.000 L472.000,148.000 Z" class="cls-26"/>
  <text transform="translate(105 262) scale(1.13 1.13)" class="cls-4"><tspan class="cls-5">localhost.controllers</tspan></text>
  <path d="M58.760,251.988 L64.994,257.500 L58.760,263.012 L56.992,261.449 L61.457,257.500 L56.992,253.552 L58.760,251.988 Z" class="cls-22"/>
  <path d="M59.122,226.144 L65.307,231.797 L59.122,237.450 L57.367,235.846 L61.798,231.797 L57.367,227.748 L59.122,226.144 Z" class="cls-22"/>
  <text transform="translate(105 236) scale(1.13 1.13)" class="cls-4"><tspan class="cls-5">localhost</tspan></text>
  <text transform="translate(105 287) scale(1.13 1.13)" class="cls-4"><tspan class="cls-5">localhost.http.client</tspan></text>
  <path d="M58.122,276.144 L64.307,281.797 L58.122,287.450 L56.367,285.846 L60.798,281.797 L56.367,277.748 L58.122,276.144 Z" class="cls-22"/>
  <text transform="translate(105 339) scale(1.13 1.13)" class="cls-4"><tspan class="cls-5">localhost.http.response</tspan></text>
  <path d="M58.122,328.144 L64.307,333.797 L58.122,339.450 L56.367,337.846 L60.798,333.797 L56.367,329.748 L58.122,328.144 Z" class="cls-22"/>
  <text transform="translate(105 365) scale(1.13 1.13)" class="cls-4"><tspan class="cls-5">localhost.models</tspan></text>
  <path d="M58.122,354.144 L64.307,359.797 L58.122,365.450 L56.367,363.846 L60.798,359.797 L56.367,355.748 L58.122,354.144 Z" class="cls-22"/>
  <path d="M58.122,303.144 L64.307,308.797 L58.122,314.450 L56.367,312.846 L60.798,308.797 L56.367,304.748 L58.122,303.144 Z" class="cls-22"/>
  <text transform="translate(105 313) scale(1.13 1.13)" class="cls-4"><tspan class="cls-5">localhost.http.request</tspan></text>
  <text transform="translate(398 419) scale(0.99 0.99)" class="cls-4"><tspan class="cls-55">{</tspan></text>
  <text transform="translate(443 442) scale(0.99 0.99)" class="cls-4"><tspan class="cls-71">public static void</tspan></text>
  <text transform="translate(661 442) scale(0.99 0.99)" class="cls-4"><tspan class="cls-55">main( String[] args )</tspan></text>
  <text transform="translate(400 214) scale(0.99 0.99)" class="cls-4"><tspan class="cls-71">package</tspan></text>
  <text transform="translate(490 214) scale(0.99 0.99)" class="cls-4"><tspan class="cls-55">TestApp.SimpleConsoleApp;</tspan></text>
  <text transform="translate(400 260) scale(0.99 0.99)" class="cls-4"><tspan class="cls-71">import</tspan></text>
  <text transform="translate(479 260) scale(0.99 0.99)" class="cls-4"><tspan class="cls-55">localhost.controllers.*;</tspan></text>
  <text transform="translate(411 328) scale(0.99 0.99)" class="cls-4"><tspan class="cls-56">* Hello world!</tspan></text>
  <text transform="translate(400 305) scale(0.99 0.99)" class="cls-4"><tspan class="cls-56">/**</tspan></text>
  <text transform="translate(411 374) scale(0.99 0.99)" class="cls-4"><tspan class="cls-56">*/</tspan></text>
  <text transform="translate(400 397) scale(0.99 0.99)" class="cls-4"><tspan class="cls-71">public class</tspan></text>
  <text transform="translate(547 397) scale(0.99 0.99)" class="cls-4"><tspan class="cls-55">App</tspan></text>
  <text transform="translate(411 351) scale(0.99 0.99)" class="cls-4"><tspan class="cls-56">*</tspan></text>
  <path d="M80.347,275.371 L92.574,275.371 L92.574,287.601 L80.347,287.601 L80.347,275.371 Z" class="cls-33"/>
  <path d="M78.990,282.174 L78.990,280.810 L93.991,280.810 L93.991,282.174 L78.990,282.174 Z" class="cls-34"/>
  <path d="M85.808,273.989 L87.172,273.989 L87.172,288.995 L85.808,288.995 L85.808,273.989 Z" class="cls-34"/>
  <path d="M80.347,301.371 L92.574,301.371 L92.574,313.601 L80.347,313.601 L80.347,301.371 Z" class="cls-33"/>
  <path d="M78.990,308.174 L78.990,306.810 L93.991,306.810 L93.991,308.174 L78.990,308.174 Z" class="cls-34"/>
  <path d="M85.808,299.989 L87.172,299.989 L87.172,314.995 L85.808,314.995 L85.808,299.989 Z" class="cls-34"/>
  <path d="M80.347,327.371 L92.574,327.371 L92.574,339.601 L80.347,339.601 L80.347,327.371 Z" class="cls-33"/>
  <path d="M78.990,334.174 L78.990,332.810 L93.991,332.810 L93.991,334.174 L78.990,334.174 Z" class="cls-34"/>
  <path d="M85.808,325.989 L87.172,325.989 L87.172,340.995 L85.808,340.995 L85.808,325.989 Z" class="cls-34"/>
  <path d="M80.347,224.371 L92.574,224.371 L92.574,236.601 L80.347,236.601 L80.347,224.371 Z" class="cls-33"/>
  <path d="M78.990,231.174 L78.990,229.810 L93.991,229.810 L93.991,231.174 L78.990,231.174 Z" class="cls-34"/>
  <path d="M85.808,222.989 L87.172,222.989 L87.172,237.995 L85.808,237.995 L85.808,222.989 Z" class="cls-34"/>
  <path d="M80.347,250.371 L92.574,250.371 L92.574,262.601 L80.347,262.601 L80.347,250.371 Z" class="cls-33"/>
  <path d="M78.990,257.174 L78.990,255.810 L93.991,255.810 L93.991,257.174 L78.990,257.174 Z" class="cls-34"/>
  <path d="M85.808,248.989 L87.172,248.989 L87.172,263.995 L85.808,263.995 L85.808,248.989 Z" class="cls-34"/>
  <path d="M80.347,353.371 L92.574,353.371 L92.574,365.601 L80.347,365.601 L80.347,353.371 Z" class="cls-33"/>
  <path d="M78.990,360.174 L78.990,358.810 L93.991,358.810 L93.991,360.174 L78.990,360.174 Z" class="cls-34"/>
  <path d="M85.808,351.989 L87.172,351.989 L87.172,366.995 L85.808,366.995 L85.808,351.989 Z" class="cls-34"/>
  <path d="M80.347,536.371 L92.574,536.371 L92.574,548.601 L80.347,548.601 L80.347,536.371 Z" class="cls-33"/>
  <path d="M78.990,543.174 L78.990,541.810 L93.991,541.810 L93.991,543.174 L78.990,543.174 Z" class="cls-34"/>
  <path d="M85.808,534.989 L87.172,534.989 L87.172,549.995 L85.808,549.995 L85.808,534.989 Z" class="cls-34"/>
</svg>
