<svg xmlns="http://www.w3.org/2000/svg" xmlns:xlink="http://www.w3.org/1999/xlink" preserveAspectRatio="xMidYMid" width="550" height="427" viewBox="0 0 740 575">
  <defs>
    <style>
      .bold {
        font-weight:700;
      }

      .cls-1, .cls-11 {
        fill: #f0f0f0;
      }

      .cls-1 {
        stroke: #dcdcdc;
        stroke-width: 2px;
      }

      .cls-1, .cls-13, .cls-14, .cls-19, .cls-20, .cls-22, .cls-5, .cls-8 {
        stroke-linejoin: round;
      }

      .cls-2, .cls-5 {
        fill: #fff;
      }

      .cls-3, .cls-4 {
        font-size: 33.809px;
      }

      .cls-4 {
        fill: #1f1f1f;
        font-family: 'Segoe UI', Tahoma, Geneva, Verdana, sans-serif;
      }

      .cls-5 {
        stroke: #e2e2e2;
      }

      .cls-13, .cls-14, .cls-19, .cls-20, .cls-22, .cls-5, .cls-8 {
        stroke-width: 1px;
      }

      .cls-6, .cls-7 {
        fill: #141414;
      }

      .cls-10, .cls-19, .cls-20, .cls-21, .cls-22, .cls-7, .cls-9 {
        fill-rule: evenodd;
      }

      .cls-8 {
        fill: #f9f9f9;
        stroke: #141414;
      }

      .cls-9 {
        fill: #e2e2e2;
      }

      .cls-10 {
        fill: #afaeae;
      }

      .cls-12 {
        fill: #dbdbdb;
      }

      .cls-13 {
        fill: #ddd;
        stroke: #7f7f7f;
      }

      .cls-14 {
        fill: #c4e5f6;
        stroke: #4d84aa;
      }

      .cls-15, .cls-16, .cls-18 {
        font-size: 32.869px;
      }

      .cls-16 {
        fill: #404040;
      }

      .cls-16, .cls-18 {
        font-family: 'Segoe UI', Tahoma, Geneva, Verdana, sans-serif;
      }

      .cls-17 {
        fill: #dfdddd;
      }

      .cls-18 {
        fill: #cacace;
      }

      .cls-19 {
        fill: #f7e5ae;
      }

      .cls-19, .cls-20 {
        stroke: #a3661b;
      }

      .cls-20 {
        fill: #f5d487;
      }

      .cls-21 {
        fill: #7f7f7f;
      }

      .cls-22 {
        fill: #4eb2eb;
        stroke: #165a81;
      }
    </style>
  </defs>
  <rect x="-1" width="741" height="575" class="cls-1"/>
  <rect x="2" y="2" width="736" height="96" class="cls-2"/>
  <text transform="translate(14 20) scale(0.53 0.53)" class="cls-3"><tspan class="cls-4">Import</tspan></text>
  <rect x="12" y="157" width="714" height="232" class="cls-5"/>
  <rect x="12" y="130" width="714" height="23" class="cls-5"/>
  <rect x="634.625" y="12.781" width="9.031" height="1.063" class="cls-6"/>
  <path d="M713.425,17.611 L722.153,8.281 L722.930,9.009 L714.202,18.339 L713.425,17.611 Z" class="cls-7"/>
  <path d="M722.964,17.906 L714.175,8.514 L713.392,9.247 L722.181,18.638 L722.964,17.906 Z" class="cls-7"/>
  <rect x="674.531" y="9.594" width="7.469" height="6.906" class="cls-8"/>
  <path d="M2.000,98.000 L2.000,97.000 L738.000,97.000 L738.000,98.000 L2.000,98.000 Z" class="cls-9"/>
  <path d="M137.077,548.380 L139.980,551.042 L137.077,553.704 L136.254,552.949 L138.333,551.042 L136.254,549.135 L137.077,548.380 Z" class="cls-10"/>
  <rect x="702" y="157" width="24" height="232" class="cls-11"/>
  <rect x="702" y="184" width="24" height="82" class="cls-12"/>
  <rect x="570" y="523" width="139" height="34" class="cls-13"/>
  <rect x="267" y="523" width="139" height="34" class="cls-14"/>
  <text transform="translate(310 546) scale(0.52 0.52)" class="cls-15"><tspan class="cls-16">Next &gt;</tspan></text>
  <rect x="120" y="523" width="139" height="34" class="cls-17"/>
  <text transform="translate(163 546) scale(0.52 0.52)" class="cls-15"><tspan class="cls-18">&lt; Back</tspan></text>
  <text transform="translate(615 546) scale(0.52 0.52)" class="cls-15"><tspan class="cls-16">Cancel</tspan></text>
  <rect x="423" y="523" width="139" height="34" class="cls-17"/>
  <text transform="translate(468 546) scale(0.52 0.52)" class="cls-15"><tspan class="cls-18">Finish</tspan></text>
  <text transform="translate(13 54) scale(0.53 0.53)" class="cls-3"><tspan class="cls-4 bold">Select</tspan></text>
  <text transform="translate(20 80) scale(0.53 0.53)" class="cls-3"><tspan class="cls-4">Create new projects from an archive file or directory.</tspan></text>
  <text transform="translate(12 122) scale(0.53 0.53)" class="cls-3"><tspan class="cls-4">Select an import source:</tspan></text>
  <text transform="translate(53 178) scale(0.53 0.53)" class="cls-3"><tspan class="cls-4">General</tspan></text>
  <text transform="translate(53 304) scale(0.53 0.53)" class="cls-3"><tspan class="cls-4">C/C++</tspan></text>
  <text transform="translate(53 330) scale(0.53 0.53)" class="cls-3"><tspan class="cls-4">EJB</tspan></text>
  <text transform="translate(53 355) scale(0.53 0.53)" class="cls-3"><tspan class="cls-4">Git</tspan></text>
  <text transform="translate(53 381) scale(0.53 0.53)" class="cls-3"><tspan class="cls-4">Install</tspan></text>
  <path d="M33.999,168.785 L33.999,175.004 L43.869,175.004 L43.869,168.785 L39.383,168.785 L39.383,167.008 L34.897,167.008 L34.897,168.785 L33.999,168.785 Z" class="cls-19"/>
  <path d="M47.991,171.281 L39.916,171.281 L36.327,174.834 L44.402,174.834 L47.991,171.281 Z" class="cls-20"/>
  <path d="M33.999,295.785 L33.999,302.004 L43.869,302.004 L43.869,295.785 L39.383,295.785 L39.383,294.008 L34.897,294.008 L34.897,295.785 L33.999,295.785 Z" class="cls-19"/>
  <path d="M47.991,298.281 L39.916,298.281 L36.327,301.834 L44.402,301.834 L47.991,298.281 Z" class="cls-20"/>
  <path d="M33.999,320.785 L33.999,327.004 L43.869,327.004 L43.869,320.785 L39.383,320.785 L39.383,319.008 L34.897,319.008 L34.897,320.785 L33.999,320.785 Z" class="cls-19"/>
  <path d="M47.991,323.281 L39.916,323.281 L36.327,326.834 L44.402,326.834 L47.991,323.281 Z" class="cls-20"/>
  <path d="M33.999,345.785 L33.999,352.004 L43.869,352.004 L43.869,345.785 L39.383,345.785 L39.383,344.008 L34.897,344.008 L34.897,345.785 L33.999,345.785 Z" class="cls-19"/>
  <path d="M47.991,348.281 L39.916,348.281 L36.327,351.834 L44.402,351.834 L47.991,348.281 Z" class="cls-20"/>
  <path d="M33.999,371.785 L33.999,378.004 L43.869,378.004 L43.869,371.785 L39.383,371.785 L39.383,370.008 L34.897,370.008 L34.897,371.785 L33.999,371.785 Z" class="cls-19"/>
  <path d="M47.991,374.281 L39.916,374.281 L36.327,377.834 L44.402,377.834 L47.991,374.281 Z" class="cls-20"/>
  <path d="M22.096,294.170 L26.993,298.582 L22.096,302.994 L20.707,301.742 L24.215,298.582 L20.707,295.421 L22.096,294.170 Z" class="cls-10"/>
  <path d="M22.096,319.170 L26.993,323.582 L22.096,327.994 L20.707,326.743 L24.215,323.582 L20.707,320.421 L22.096,319.170 Z" class="cls-10"/>
  <path d="M22.096,344.170 L26.993,348.582 L22.096,352.994 L20.707,351.743 L24.215,348.582 L20.707,345.421 L22.096,344.170 Z" class="cls-10"/>
  <path d="M22.096,370.170 L26.993,374.582 L22.096,378.994 L20.707,377.743 L24.215,374.582 L20.707,371.421 L22.096,370.170 Z" class="cls-10"/>
  <path d="M28.976,170.356 L24.485,175.168 L19.995,170.356 L21.269,168.991 L24.485,172.438 L27.702,168.991 L28.976,170.356 Z" class="cls-21"/>
  <path d="M709.993,175.678 L714.499,170.988 L719.005,175.678 L717.726,177.008 L714.499,173.649 L711.271,177.008 L709.993,175.678 Z" class="cls-21"/>
  <rect x="39" y="209" width="290" height="24" class="cls-11"/>
  <path d="M1.000,28.000 L1.000,27.000 L739.000,27.000 L739.000,28.000 L1.000,28.000 Z" class="cls-9"/>
  <path d="M709.993,375.322 L714.499,380.012 L719.005,375.322 L717.726,373.992 L714.499,377.351 L711.271,373.992 L709.993,375.322 Z" class="cls-21"/>
  <path d="M45.999,219.785 L45.999,226.004 L55.869,226.004 L55.869,219.785 L51.383,219.785 L51.383,218.008 L46.897,218.008 L46.897,219.785 L45.999,219.785 Z" class="cls-19"/>
  <path d="M59.991,222.281 L51.916,222.281 L48.327,225.834 L56.402,225.834 L59.991,222.281 Z" class="cls-22"/>
  <text transform="translate(68 203) scale(0.53 0.53)" class="cls-3"><tspan class="cls-4">Archive File</tspan></text>
  <text transform="translate(68 227) scale(0.53 0.53)" class="cls-3"><tspan class="cls-4">Existing Projects into Workspace</tspan></text>
  <text transform="translate(68 252) scale(0.53 0.53)" class="cls-3"><tspan class="cls-4">File System</tspan></text>
  <text transform="translate(68 279) scale(0.53 0.53)" class="cls-3"><tspan class="cls-4">Preferences</tspan></text>
</svg>
