<svg xmlns="http://www.w3.org/2000/svg" xmlns:xlink="http://www.w3.org/1999/xlink" preserveAspectRatio="xMidYMid" width="550" height="427" viewBox="0 0 740 575">
  <defs>
    <style>
      .bold {
        font-weight:700;
      }

      .cls-1, .cls-13, .cls-26 {
        fill: #f0f0f0;
      }

      .cls-1 {
        stroke: #dcdcdc;
      }

      .cls-1, .cls-10, .cls-15, .cls-16, .cls-26, .cls-27, .cls-6 {
        stroke-linejoin: round;
      }

      .cls-1, .cls-27 {
        stroke-width: 2px;
      }

      .cls-2, .cls-27, .cls-6 {
        fill: #fff;
      }

      .cls-23, .cls-3, .cls-4 {
        font-size: 33.809px;
      }

      .cls-19, .cls-4 {
        fill: #1f1f1f;
      }

      .cls-23, .cls-4 {
        font-family: 'Segoe UI', Tahoma, Geneva, Verdana, sans-serif;
      }

      .cls-5 {
        fill: #d4d3d3;
      }

      .cls-26, .cls-6 {
        stroke: #e2e2e2;
      }

      .cls-10, .cls-15, .cls-16, .cls-26, .cls-6 {
        stroke-width: 1px;
      }

      .cls-7, .cls-8 {
        fill: #141414;
      }

      .cls-11, .cls-12, .cls-22, .cls-24, .cls-27, .cls-28, .cls-29, .cls-8, .cls-9 {
        fill-rule: evenodd;
      }

      .cls-9 {
        fill: #7f7f7f;
      }

      .cls-10 {
        fill: #f9f9f9;
        stroke: #141414;
      }

      .cls-11 {
        fill: #e2e2e2;
      }

      .cls-12 {
        fill: #afaeae;
      }

      .cls-14, .cls-29 {
        fill: #dbdbdb;
      }

      .cls-15 {
        fill: #ddd;
        stroke: #7f7f7f;
      }

      .cls-16, .cls-25 {
        fill: #c4e5f6;
      }

      .cls-16 {
        stroke: #4d84aa;
      }

      .cls-17, .cls-18, .cls-19, .cls-21 {
        font-size: 32.869px;
      }

      .cls-18 {
        fill: #404040;
      }

      .cls-18, .cls-19, .cls-21 {
        font-family: 'Segoe UI', Tahoma, Geneva, Verdana, sans-serif;
      }

      .cls-20, .cls-22 {
        fill: #dfdddd;
      }

      .cls-21 {
        fill: #cacace;
      }

      .cls-23 {
        fill: #b0b0b0;
      }

      .cls-24 {
        fill: #f4f2f2;
      }

      .cls-27 {
        stroke: #444;
      }

      .cls-28 {
        fill: #656565;
      }
    </style>
  </defs>
  <rect width="740" height="575" class="cls-1"/>
  <rect x="2" y="2" width="736" height="96" class="cls-2"/>
  <text transform="translate(14 20) scale(0.53 0.53)" class="cls-3"><tspan class="cls-4">New Maven Project</tspan></text>
  <rect x="87" y="104" width="549" height="26" class="cls-5"/>
  <rect x="12" y="162" width="714" height="186.781" class="cls-6"/>
  <rect x="87" y="134" width="615" height="23" class="cls-6"/>
  <rect x="634.625" y="12.781" width="9.031" height="1.063" class="cls-7"/>
  <path d="M713.425,17.611 L722.153,8.281 L722.930,9.009 L714.202,18.339 L713.425,17.611 Z" class="cls-8"/>
  <path d="M722.964,17.906 L714.175,8.514 L713.392,9.247 L722.181,18.638 L722.964,17.906 Z" class="cls-8"/>
  <path d="M709.425,150.611 L718.153,141.281 L718.930,142.009 L710.202,151.339 L709.425,150.611 Z" class="cls-9"/>
  <path d="M718.964,150.906 L710.175,141.514 L709.392,142.247 L718.181,151.638 L718.964,150.906 Z" class="cls-9"/>
  <rect x="674.531" y="9.594" width="7.469" height="6.906" class="cls-10"/>
  <path d="M2.000,98.000 L2.000,97.000 L738.000,97.000 L738.000,98.000 L2.000,98.000 Z" class="cls-11"/>
  <path d="M137.077,548.380 L139.980,551.042 L137.077,553.704 L136.254,552.949 L138.333,551.042 L136.254,549.135 L137.077,548.380 Z" class="cls-12"/>
  <rect x="702" y="164" width="24" height="184" class="cls-13"/>
  <rect x="702" y="245" width="24" height="82" class="cls-14"/>
  <rect x="570" y="523" width="139" height="34" class="cls-15"/>
  <rect x="267" y="523" width="139" height="34" class="cls-16"/>
  <text transform="translate(310 546) scale(0.52 0.52)" class="cls-17"><tspan class="cls-18">Next &gt;</tspan></text>
  <rect x="120" y="523" width="139" height="34" class="cls-15"/>
  <text transform="translate(163 546) scale(0.52 0.52)" class="cls-17"><tspan class="cls-19">&lt; Back</tspan></text>
  <text transform="translate(615 546) scale(0.52 0.52)" class="cls-17"><tspan class="cls-18">Cancel</tspan></text>
  <rect x="423" y="523" width="139" height="34" class="cls-20"/>
  <text transform="translate(468 546) scale(0.52 0.52)" class="cls-17"><tspan class="cls-21">Finish</tspan></text>
  <text transform="translate(13 54) scale(0.53 0.53)" class="cls-3"><tspan class="cls-4 bold">Select a wizard</tspan></text>
  <text transform="translate(20 80) scale(0.53 0.53)" class="cls-3"><tspan class="cls-4">Create Maven Project</tspan></text>
  <text transform="translate(12 122) scale(0.53 0.53)" class="cls-3"><tspan class="cls-4">Catalog:</tspan></text>
  <text transform="translate(93 122) scale(0.53 0.53)" class="cls-3"><tspan class="cls-4">All Catalogs</tspan></text>
  <path d="M641.545,104.084 L726.000,104.084 L726.000,130.000 L641.545,130.000 L641.545,104.084 Z" class="cls-22"/>
  <text transform="translate(648 122) scale(0.4 0.4)" class="cls-17"><tspan class="cls-19">Configure...</tspan></text>
  <rect x="616" y="405" width="111" height="26" class="cls-20"/>
  <text transform="translate(621 423) scale(0.4 0.4)" class="cls-17"><tspan class="cls-19">Add Archetype...</tspan></text>
  <path d="M623.303,115.465 L619.661,119.808 L616.020,115.465 L617.053,114.234 L619.661,117.344 L622.270,114.234 L623.303,115.465 Z" class="cls-12"/>
  <text transform="translate(11 151) scale(0.53 0.53)" class="cls-3"><tspan class="cls-4">Filter:</tspan></text>
  <text transform="translate(19 188) scale(0.53 0.53)" class="cls-3"><tspan class="cls-4">Group Id</tspan></text>
  <text transform="translate(267 188) scale(0.53 0.53)" class="cls-3"><tspan class="cls-4">Artifact Id</tspan></text>
  <text transform="translate(515 188) scale(0.53 0.53)" class="cls-3"><tspan class="cls-4">Version</tspan></text>
  <text transform="translate(19 333) scale(0.53 0.53)" class="cls-3"><tspan class="cls-23">org.apache.maven.archetypes</tspan></text>
  <text transform="translate(19 218) scale(0.53 0.53)" class="cls-3"><tspan class="cls-23">org.apache.maven.archetypes</tspan></text>
  <path d="M509.000,162.000 L510.000,162.000 L510.000,349.000 L509.000,349.000 L509.000,162.000 Z" class="cls-24"/>
  <text transform="translate(267 218) scale(0.53 0.53)" class="cls-3"><tspan class="cls-23">maven-archetype-portlet</tspan></text>
  <text transform="translate(19 241) scale(0.53 0.53)" class="cls-3"><tspan class="cls-23">org.apache.maven.archetypes</tspan></text>
  <rect x="13" y="248" width="589" height="24" class="cls-25"/>
  <path d="M709.993,177.678 L714.499,172.988 L719.005,177.678 L717.726,179.008 L714.499,175.649 L711.271,179.008 L709.993,177.678 Z" class="cls-9"/>
  <path d="M1.000,28.000 L1.000,27.000 L739.000,27.000 L739.000,28.000 L1.000,28.000 Z" class="cls-11"/>
  <path d="M709.993,336.322 L714.499,341.012 L719.005,336.322 L717.726,334.992 L714.499,338.351 L711.271,334.992 L709.993,336.322 Z" class="cls-9"/>
  <text transform="translate(19 264) scale(0.53 0.53)" class="cls-3"><tspan class="cls-4">org.apache.maven.archetypes</tspan></text>
  <text transform="translate(19 287) scale(0.53 0.53)" class="cls-3"><tspan class="cls-23">org.apache.maven.archetypes</tspan></text>
  <text transform="translate(19 310) scale(0.53 0.53)" class="cls-3"><tspan class="cls-23">org.apache.maven.archetypes</tspan></text>
  <text transform="translate(268 333) scale(0.53 0.53)" class="cls-3"><tspan class="cls-23">webapp</tspan></text>
  <text transform="translate(267 241) scale(0.53 0.53)" class="cls-3"><tspan class="cls-23">maven-archetype-profiles</tspan></text>
  <text transform="translate(267 264) scale(0.53 0.53)" class="cls-3"><tspan class="cls-4">maven-archetype-quickstart</tspan></text>
  <text transform="translate(267 287) scale(0.53 0.53)" class="cls-3"><tspan class="cls-23">maven-archetype-site</tspan></text>
  <text transform="translate(267 310) scale(0.53 0.53)" class="cls-3"><tspan class="cls-23">maven-archetype-site-simple</tspan></text>
  <text transform="translate(513 218) scale(0.53 0.53)" class="cls-3"><tspan class="cls-23">1.0.1</tspan></text>
  <text transform="translate(513 333) scale(0.53 0.53)" class="cls-3"><tspan class="cls-23">1.0</tspan></text>
  <text transform="translate(513 241) scale(0.53 0.53)" class="cls-3"><tspan class="cls-23">1.0-alpha-4</tspan></text>
  <text transform="translate(513 264) scale(0.53 0.53)" class="cls-3"><tspan class="cls-4">1.1</tspan></text>
  <text transform="translate(513 287) scale(0.53 0.53)" class="cls-3"><tspan class="cls-23">1.1</tspan></text>
  <text transform="translate(513 310) scale(0.53 0.53)" class="cls-3"><tspan class="cls-23">1.1</tspan></text>
  <rect x="12" y="353" width="714" height="48" class="cls-26"/>
  <text transform="translate(19 372) scale(0.53 0.53)" class="cls-3"><tspan class="cls-4">An archetype which contains a Maven project.</tspan></text>
  <text transform="translate(47 424) scale(0.45 0.45)" class="cls-3"><tspan class="cls-4">Show the last version of Archetype only</tspan></text>
  <path d="M602.000,162.000 L603.000,162.000 L603.000,349.000 L602.000,349.000 L602.000,162.000 Z" class="cls-24"/>
  <path d="M256.000,162.000 L257.000,162.000 L257.000,349.000 L256.000,349.000 L256.000,162.000 Z" class="cls-24"/>
  <path d="M13.000,410.000 L29.812,410.000 L29.812,426.758 L13.000,426.758 L13.000,410.000 Z" class="cls-27"/>
  <path d="M27.061,416.359 L27.061,416.359 L21.077,422.340 L21.077,422.340 C20.936,422.481 20.741,422.569 20.525,422.569 C20.310,422.569 20.115,422.481 19.973,422.340 L19.973,422.340 L16.591,418.960 L16.591,418.960 C16.450,418.818 16.362,418.623 16.362,418.408 C16.362,417.977 16.712,417.628 17.143,417.628 C17.358,417.628 17.554,417.715 17.695,417.856 L17.695,417.856 L20.525,420.685 L25.958,415.256 L25.958,415.256 C26.099,415.115 26.294,415.027 26.509,415.027 C26.941,415.027 27.290,415.377 27.290,415.808 C27.290,416.023 27.203,416.218 27.061,416.359 Z" class="cls-28"/>
  <text transform="translate(354 424) scale(0.45 0.45)" class="cls-3"><tspan class="cls-4">Include snapshot archetypes</tspan></text>
  <path d="M321.322,410.000 L338.133,410.000 L338.133,426.758 L321.322,426.758 L321.322,410.000 Z" class="cls-27"/>
  <path d="M335.383,416.359 L335.383,416.359 L329.399,422.340 L329.399,422.340 C329.257,422.481 329.062,422.569 328.847,422.569 C328.631,422.569 328.436,422.481 328.295,422.340 L328.295,422.340 L324.913,418.960 L324.913,418.960 C324.771,418.818 324.684,418.623 324.684,418.408 C324.684,417.977 325.033,417.628 325.464,417.628 C325.680,417.628 325.875,417.715 326.016,417.856 L326.016,417.856 L328.847,420.685 L334.279,415.256 L334.279,415.256 C334.420,415.115 334.615,415.027 334.831,415.027 C335.262,415.027 335.611,415.377 335.611,415.808 C335.611,416.023 335.524,416.218 335.383,416.359 Z" class="cls-28"/>
  <path d="M709.993,389.322 L714.499,394.012 L719.005,389.322 L717.726,387.992 L714.499,391.351 L711.271,387.992 L709.993,389.322 Z" class="cls-29"/>
  <path d="M709.993,366.678 L714.499,361.988 L719.005,366.678 L717.726,368.008 L714.499,364.649 L711.271,368.008 L709.993,366.678 Z" class="cls-29"/>
</svg>
