<?xml version="1.0" encoding="utf-8" standalone="no" ?>
<svg xmlns="http://www.w3.org/2000/svg" xmlns:xlink="http://www.w3.org/1999/xlink" preserveAspectRatio="xMidYMid" width="550" height="427" viewBox="0 0 740 575">
  <defs>
    <style>
     .bold {
        font-weight:700;
     }
     
      .xcls-1 {
        fill: #f0f0f0;
      }

      .xcls-1 {
        stroke: #dcdcdc;
        stroke-width: 2px;
      }
	  
      .cls-1, .cls-21, .cls-4 {
        fill: #fff;
      }

      .cls-2, .cls-22, .cls-3 {
        font-size: 33.809px;
      }

      .cls-3 {
        fill: #1f1f1f;
      }

      .cls-22, .cls-3 {
        font-family: 'Segoe UI', Tahoma, Geneva, Verdana, sans-serif;
      }

      .cls-4, .cls-5 {
        stroke: #e2e2e2;
      }

      .cls-12, .cls-16, .cls-19, .cls-21, .cls-4, .cls-5, .cls-9 {
        stroke-linejoin: round;
      }

      .cls-12, .cls-16, .cls-19, .cls-4, .cls-5, .cls-9 {
        stroke-width: 1px;
      }

      .cls-5, .cls-6 {
        fill: #f0f0f0;
      }

      .cls-7, .cls-8 {
        fill: #141414;
      }

      .cls-10, .cls-11, .cls-12, .cls-13, .cls-16, .cls-18, .cls-19, .cls-23, .cls-8 {
        fill-rule: evenodd;
      }

      .cls-9 {
        fill: #f9f9f9;
        stroke: #141414;
      }

      .cls-10 {
        fill: #e2e2e2;
      }

      .cls-11 {
        fill: #afaeae;
      }

      .cls-12, .cls-18 {
        fill: #ddd;
      }

      .cls-12, .cls-16 {
        stroke: #7f7f7f;
      }

      .cls-13, .cls-16 {
        fill: #dfdddd;
      }

      .cls-14, .cls-15, .cls-17, .cls-26 {
        font-size: 32.869px;
      }

      .cls-15 {
        fill: #cacace;
      }

      .cls-15, .cls-17, .cls-26 {
        font-family: 'Segoe UI', Tahoma, Geneva, Verdana, sans-serif;
      }

      .cls-17 {
        fill: #404040;
      }

      .cls-19, .cls-20 {
        fill: #c4e5f6;
      }

      .cls-19 {
        stroke: #4d84aa;
      }

      .cls-21 {
        stroke: #444;
        stroke-width: 2px;
      }

      .cls-22, .cls-25 {
        fill: #d4d3d3;
      }

      .cls-23 {
        fill: #444;
      }

      .cls-24 {
        fill: #1b1b1b;
      }

      .cls-26 {
        fill: #ceced1;
      }
    </style>
  </defs>
  <rect x="-1" width="741" height="575" class="xcls-1"/>
  <rect x="2" y="2" width="736" height="97" class="cls-1"/>
  <text transform="translate(14 20) scale(0.53 0.53)" class="cls-2"><tspan class="cls-3">Import</tspan></text>
  <rect x="12" y="200" width="593" height="94" class="cls-4"/>
  <rect x="12" y="308" width="720" height="104" class="cls-5"/>
  <rect x="20" y="301" width="72" height="14" class="cls-6"/>
  <rect x="634.625" y="14.781" width="9.031" height="1.063" class="cls-7"/>
  <path d="M713.425,19.611 L722.153,10.281 L722.930,11.009 L714.202,20.339 L713.425,19.611 Z" class="cls-8"/>
  <path d="M722.964,19.906 L714.175,10.514 L713.392,11.247 L722.181,20.638 L722.964,19.906 Z" class="cls-8"/>
  <rect x="674.531" y="11.594" width="7.469" height="6.906" class="cls-9"/>
  <path d="M2.000,99.000 L2.000,98.000 L738.000,98.000 L738.000,99.000 L2.000,99.000 Z" class="cls-10"/>
  <path d="M2.000,528.000 L2.000,527.000 L738.000,527.000 L738.000,528.000 L2.000,528.000 Z" class="cls-10"/>
  <path d="M2.000,28.000 L2.000,27.000 L738.000,27.000 L738.000,28.000 L2.000,28.000 Z" class="cls-10"/>
  <path d="M229.569,558.643 L232.046,560.915 L229.569,563.187 L228.867,562.542 L230.641,560.915 L228.867,559.288 L229.569,558.643 Z" class="cls-11"/>
  <path d="M598.911,536.983 L717.497,536.983 L717.497,566.000 L598.911,566.000 L598.911,536.983 Z" class="cls-12"/>
  <path d="M340.411,536.983 L458.997,536.983 L458.997,566.000 L340.411,566.000 L340.411,536.983 Z" class="cls-13"/>
  <text transform="translate(377 557) scale(0.44 0.44)" class="cls-14"><tspan class="cls-15">Next &gt;</tspan></text>
  <path d="M215.000,536.983 L333.586,536.983 L333.586,566.000 L215.000,566.000 L215.000,536.983 Z" class="cls-16"/>
  <text transform="translate(252 557) scale(0.44 0.44)" class="cls-14"><tspan class="cls-17">&lt; Back</tspan></text>
  <text transform="translate(637 557) scale(0.44 0.44)" class="cls-14"><tspan class="cls-17">Cancel</tspan></text>
  <path d="M613.414,198.877 L732.000,198.877 L732.000,227.894 L613.414,227.894 L613.414,198.877 Z" class="cls-12"/>
  <text transform="translate(643 218) scale(0.44 0.44)" class="cls-14"><tspan class="cls-17">Select All</tspan></text>
  <rect x="205.5" y="105" width="399.5" height="28" class="cls-4"/>
  <path d="M613.414,104.000 L732.000,104.000 L732.000,133.017 L613.414,133.017 L613.414,104.000 Z" class="cls-12"/>
  <text transform="translate(643 124) scale(0.44 0.44)" class="cls-14"><tspan class="cls-17">Browse...</tspan></text>
  <rect x="205.5" y="140" width="399.5" height="28" class="cls-4"/>
  <path d="M613.414,139.137 L732.000,139.137 L732.000,168.154 L613.414,168.154 L613.414,139.137 Z" class="cls-18"/>
  <text transform="translate(643 160) scale(0.44 0.44)" class="cls-14"><tspan class="cls-15">Browse...</tspan></text>
  <rect x="207.594" y="141.656" width="365.156" height="24.688" class="cls-6"/>
  <path d="M592.993,152.788 L589.000,157.632 L585.006,152.788 L586.139,151.414 L589.000,154.884 L591.860,151.414 L592.993,152.788 Z" class="cls-11"/>
  <path d="M592.993,117.332 L589.000,122.002 L585.006,117.332 L586.139,116.007 L589.000,119.352 L591.860,116.007 L592.993,117.332 Z" class="cls-11"/>
  <path d="M613.414,231.307 L732.000,231.307 L732.000,260.324 L613.414,260.324 L613.414,231.307 Z" class="cls-12"/>
  <text transform="translate(633 251) scale(0.44 0.44)" class="cls-14"><tspan class="cls-17">Deselect All</tspan></text>
  <path d="M613.414,264.591 L732.000,264.591 L732.000,293.608 L613.414,293.608 L613.414,264.591 Z" class="cls-12"/>
  <text transform="translate(646 285) scale(0.44 0.44)" class="cls-14"><tspan class="cls-17">Refresh</tspan></text>
  <path d="M473.500,536.983 L592.086,536.983 L592.086,566.000 L473.500,566.000 L473.500,536.983 Z" class="cls-19"/>
  <text transform="translate(511 557) scale(0.44 0.44)" class="cls-14"><tspan class="cls-17">Finish</tspan></text>
  <text transform="translate(13 51) scale(0.53 0.53)" class="cls-2"><tspan class="cls-3 bold">Import Projects</tspan></text>
  <text transform="translate(20 82) scale(0.53 0.53)" class="cls-2"><tspan class="cls-3">Select a directory to search for existing Eclipse projects.</tspan></text>
  <text transform="translate(12 190) scale(0.53 0.53)" class="cls-2"><tspan class="cls-3">Projects:</tspan></text>
  <text transform="translate(35 124) scale(0.53 0.53)" class="cls-2"><tspan class="cls-3">Select root directory:</tspan></text>
  <text transform="translate(35 159) scale(0.53 0.53)" class="cls-2"><tspan class="cls-3">Select archive file:</tspan></text>
  <rect x="45" y="202" width="545" height="25" class="cls-20"/>
  <text transform="translate(48 221) scale(0.53 0.53)" class="cls-2"><tspan class="cls-3">TSPublicRestAPILib (X:\...\TS Public RestAPI-Java)</tspan></text>
  <text transform="translate(48 341) scale(0.53 0.53)" class="cls-2"><tspan class="cls-3">Search for nested projects</tspan></text>
  <text transform="translate(25 313) scale(0.53 0.53)" class="cls-2"><tspan class="cls-3">Options</tspan></text>
  <text transform="translate(48 370) scale(0.53 0.53)" class="cls-2"><tspan class="cls-3">Copy projects into workspace</tspan></text>
  <text transform="translate(48 400) scale(0.53 0.53)" class="cls-2"><tspan class="cls-3">Hide projects that already exist in the workspace</tspan></text>
  <rect x="25" y="205" width="20" height="20" class="cls-21"/>
  <rect x="25" y="326" width="20" height="20" class="cls-21"/>
  <rect x="12" y="426" width="720" height="76" class="cls-5"/>
  <rect x="20" y="419" width="72" height="14" class="cls-6"/>
  <text transform="translate(48 459) scale(0.53 0.53)" class="cls-2"><tspan class="cls-3">Search for nested projects</tspan></text>
  <text transform="translate(24 489) scale(0.53 0.53)" class="cls-2"><tspan class="cls-22">Working sets:</tspan></text>
  <text transform="translate(25 431) scale(0.53 0.53)" class="cls-2"><tspan class="cls-3">Options</tspan></text>
  <rect x="25" y="444" width="20" height="20" class="cls-21"/>
  <rect x="25" y="355" width="20" height="20" class="cls-21"/>
  <rect x="25" y="384" width="20" height="20" class="cls-21"/>
  <path d="M41.707,212.766 L41.707,212.766 L34.040,220.697 L34.040,220.697 C33.860,220.884 33.610,221.000 33.333,221.000 C33.057,221.000 32.807,220.884 32.626,220.697 L32.626,220.697 L28.293,216.214 L28.293,216.214 C28.112,216.027 28.000,215.768 28.000,215.483 C28.000,214.911 28.448,214.448 29.000,214.448 C29.276,214.448 29.526,214.564 29.707,214.751 L29.707,214.751 L33.333,218.503 L40.293,211.303 L40.293,211.303 C40.474,211.116 40.724,211.000 41.000,211.000 C41.552,211.000 42.000,211.463 42.000,212.035 C42.000,212.320 41.888,212.579 41.707,212.766 Z" class="cls-23"/>
  <circle cx="20.5" cy="117.5" r="9.5" class="cls-21"/>
  <circle cx="20.5" cy="152.5" r="9.5" class="cls-21"/>
  <circle cx="20.5" cy="117.5" r="5.5" class="cls-24"/>
  <rect x="133" y="469" width="472" height="29" class="cls-25"/>
  <path d="M608.911,468.983 L727.497,468.983 L727.497,498.000 L608.911,498.000 L608.911,468.983 Z" class="cls-13"/>
  <text transform="translate(647 489) scale(0.44 0.44)" class="cls-14"><tspan class="cls-26">Cancel</tspan></text>
  <path d="M592.993,481.788 L589.000,486.632 L585.006,481.788 L586.139,480.414 L589.000,483.884 L591.860,480.414 L592.993,481.788 Z" class="cls-11"/>
</svg>
