<svg width="16" height="16" viewBox="0 0 16 16" fill="none" xmlns="http://www.w3.org/2000/svg">
<style>
  .logo-path { fill: #0a0b09; }
  @media (prefers-color-scheme: dark) { .logo-path { fill: #ffffff; } }
</style>
<path class="logo-path" d="M15.8072 0H0V2.9277H15.8072V0Z"/>
<path class="logo-path" d="M15.8072 3.9036H9.80118V6.83131H15.8072V3.9036Z"/>
<path class="logo-path" d="M3.83734 3.9036H0V6.83131H3.83734C5.27108 6.83131 6.43975 7.99998 6.43975 9.43371V15.8072H9.36745V9.43371C9.36745 6.38552 6.88553 3.9036 3.83734 3.9036Z"/>
<path class="logo-path" d="M12.8072 11.0843C11.4518 11.0843 10.3494 12.1868 10.3494 13.5422C10.3494 14.8976 11.4518 16 12.8072 16C14.1626 16 15.265 14.8976 15.265 13.5422C15.265 12.1868 14.1626 11.0843 12.8072 11.0843Z"/>
</svg>
