<svg xmlns="http://www.w3.org/2000/svg" viewBox="0 0 404.4 78.6"><g fill="#fff"><path d="M392.4 35.3v-4.9h-5.8v-7.1h-4.9v7.1H377v4.9h4.6v14.2c0 4.1 3.4 7.5 7.5 7.5h3.3v-4.9h-3.3c-1.4 0-2.6-1.1-2.6-2.6V35.3h5.9zM363.7 29.9c5.3 0 9.5 4.3 9.5 9.6v8c0 5.2-4.3 9.6-9.5 9.6h-1.9c-5.2 0-9.5-4.3-9.5-9.6v-8c0-5.3 4.3-9.6 9.5-9.6h1.9zm-6.4 9.6v8c0 2.6 2.1 4.6 4.6 4.6h1.9c2.6 0 4.6-2.1 4.6-4.6v-8c0-2.6-2-4.6-4.6-4.6h-1.9c-2.5-.1-4.6 2-4.6 4.6zM346.9 39.5v8c0 5.3-4.3 9.6-9.5 9.6h-.6c-2.2 0-4.3-.8-5.9-2.1v10.6H326V30.4h4.9V32c1.6-1.3 3.6-2.1 5.9-2.1h.6c5.2 0 9.5 4.3 9.5 9.6zm-4.9 0c0-2.5-2-4.6-4.6-4.6h-1.9c-2.5 0-4.6 2.1-4.6 4.6v8c0 2.6 2.1 4.6 4.6 4.6h1.9c2.6 0 4.6-2.1 4.6-4.6v-8zM303 48.4c.5 2.1 2.3 3.7 4.6 3.7h3.4c2.5 0 4.6-2.1 4.6-4.6 0-2.9-1.8-4.6-4.4-5.6l-4.5-1.7c-4.2-1.6-7.7-4.4-7.7-9.7 0-5.3 4.3-9.6 9.5-9.6h2.4c4.4 0 8.2 3 9.2 7.2l-4.8 1.4c-.4-2.1-2.3-3.6-4.5-3.6h-2.4c-2.6 0-4.6 2.1-4.6 4.6 0 2 .7 3.5 4.7 5.1l4.5 1.8c4.6 1.9 7.5 5.3 7.5 10.1 0 5.3-4.3 9.5-9.5 9.5h-3.4c-4.5 0-8.2-3.1-9.3-7.2l4.7-1.4zM293.6 35.3v-4.9h-5.8v-7.1h-4.9v7.1h-4.6v4.9h4.6v14.2c0 4.1 3.4 7.5 7.5 7.5h3.3v-4.9h-3.3c-1.4 0-2.6-1.1-2.6-2.6V35.3h5.8zM273.9 39.5v17.1H269V39.5c0-2.6-2-4.6-4.6-4.6h-1.9c-2.5 0-4.6 2.1-4.6 4.6v17.1H253V21.4h4.9V32c1.6-1.3 3.6-2.1 5.9-2.1h.6c5.3 0 9.5 4.3 9.5 9.6zM246.6 30.4v26c0 5.3-4.2 9.5-9.5 9.5h-2c-4.5 0-8.2-3.1-9.2-7.2l4.7-1.4c.5 2 2.3 3.6 4.5 3.6h2c2.5 0 4.6-2.1 4.6-4.6v-3.1c-1.6 1.3-3.6 2.1-5.9 2.1h-.6c-5.2 0-9.5-4.3-9.5-9.6v-6.4c0-5.3 4.3-9.6 9.5-9.6h.6c2.2 0 4.3.8 5.9 2.1v-1.6l4.9.2zm-4.9 15.5v-6.4c0-2.6-2-4.6-4.6-4.6h-1.9c-2.5 0-4.6 2.1-4.6 4.6v6.4c0 2.5 2.1 4.6 4.6 4.6h1.9c2.5 0 4.6-2.1 4.6-4.6zM204.1 30.4v17.1c0 2.6 2 4.6 4.6 4.6h1.9c2.6 0 4.6-2.1 4.6-4.6V30.4h4.9v17.1c0 5.3-4.3 9.5-9.5 9.5h-1.9c-5.3 0-9.5-4.3-9.5-9.6v-17h4.9zM183.9 29.9c5.3 0 9.5 4.3 9.5 9.6v8c0 5.2-4.3 9.6-9.5 9.6H182c-5.2 0-9.5-4.3-9.5-9.6v-8c0-5.3 4.3-9.6 9.5-9.6h1.9zm-6.5 9.6v8c0 2.6 2.1 4.6 4.6 4.6h1.9c2.6 0 4.6-2.1 4.6-4.6v-8c0-2.6-2-4.6-4.6-4.6H182c-2.5-.1-4.6 2-4.6 4.6zM166.8 39.5v17.1h-4.9V39.5c0-2.6-2-4.6-4.6-4.6h-1.9c-2.5 0-4.6 2.1-4.6 4.6v17.1h-4.9V21.4h4.9V32c1.6-1.3 3.6-2.1 5.9-2.1h.6c5.2 0 9.5 4.3 9.5 9.6zM140.6 21.4v4.9h-9.9v30.2h-4.9V26.4h-9.9v-4.9l24.7-.1z"/><circle cx="68.9" cy="68.8" r="9.8"/><path d="M78 19.5H0v4.9h26.8V78h4.9V24.4h4.9V78h4.8V24.4h4.9V78h4.9V24.4H78zM0 9.8h78v4.9H0zM0 0h78v4.9H0zM400.4 57.1c2.2 0 4-1.8 4-4s-1.8-4-4-4c-2.3 0-4 1.8-4 4s1.7 4 4 4zm0-.7c-1.8 0-3.2-1.5-3.2-3.3 0-1.8 1.4-3.3 3.2-3.3 1.8 0 3.2 1.5 3.2 3.3 0 1.8-1.4 3.3-3.2 3.3zm-.7-1v-1.8h.5l1.1 1.8h.9l-1.1-1.9c.6-.2 1.1-.6 1.1-1.3 0-.4-.2-.8-.5-1.1-.3-.2-.7-.3-1.2-.3h-1.6v4.5h.8zm.7-2.5h-.7v-1.4h.7c.6 0 1 .2 1 .7 0 .5-.4.7-1 .7z"/></g></svg>
