<?xml version="1.0" encoding="UTF-8" standalone="no" ?>
<svg xmlns="http://www.w3.org/2000/svg" xmlns:xlink="http://www.w3.org/1999/xlink" preserveAspectRatio="xMidYMid" width="844" height="540" viewBox="0 0 844 540">
    <defs>
        <style>
            .cls-1, .cls-16, .cls-5 {
            fill: #e8e8e8;
            }

            .cls-1 {
            stroke: #cacace;
            stroke-linejoin: round;
            stroke-width: 1px;
            }

            .cls-2, .cls-3 {
            fill: #fff;
            }

            .cls-11, .cls-15, .cls-16, .cls-2, .cls-8 {
            fill-rule: evenodd;
            }

            .cls-4 {
            fill: #c5cede;
            }

            .cls-12, .cls-13, .cls-14, .cls-6, .cls-7 {
            font-size: 24px;
            }

            .cls-7 {
            fill: #4d4a55;
            }

            .cls-14, .cls-7 {
            font-family: "Myriad Pro";
            }

            .cls-14, .cls-8 {
            fill: #a0a0a0;
            }

            .cls-10, .cls-9 {
            font-size: 23px;
            }

            .cls-10 {
            fill: #bebdbd;
            font-family: "Open Sans";
            }

            .cls-11 {
            fill: #bd9662;
            }

            .cls-12 {
            fill: #286cc8;
            }

            .cls-12, .cls-13 {
            font-family: "Courier New";
            }

            .cls-13 {
            fill: #282828;
            }

            .cls-15 {
            fill: #919191;
            }
        </style>
    </defs>
    <rect width="843" height="540" class="cls-1" />
    <path d="M403.000,33.000 L499.000,33.000 L499.000,60.000 L842.000,60.000 L842.000,64.000 L403.000,64.000 L403.000,33.000 Z" class="cls-2" />
    <rect x="1" y="94" width="401" height="445" class="cls-3" />
    <rect x="457" y="65" width="385" height="474" class="cls-3" />
    <rect x="1" y="65" width="401" height="28" class="cls-4" />
    <rect x="1" y="161" width="401" height="26" class="cls-5" />
    <text transform="translate(31 53) scale(0.5 0.5)" class="cls-6"><tspan class="cls-7">Tspublicrest...</tspan></text>
    <text transform="translate(39 83) scale(0.5 0.5)" class="cls-6"><tspan class="cls-7">project</tspan></text>
    <path d="M97.694,83.000 L94.771,77.937 L100.617,77.937 L97.694,83.000 Z" class="cls-8" />
    <path d="M10.694,111.000 L7.771,105.937 L13.617,105.937 L10.694,111.000 Z" class="cls-8" />
    <path d="M13.000,260.009 L8.000,263.010 L8.000,257.008 L13.000,260.009 Z" class="cls-8" />
    <path d="M36.000,129.009 L31.000,132.010 L31.000,126.008 L36.000,129.009 Z" class="cls-8" />
    <text transform="translate(195 22) scale(0.5 0.5)" class="cls-9"><tspan class="cls-10">Code</tspan></text>
    <text transform="translate(11 22) scale(0.5 0.5)" class="cls-9"><tspan class="cls-10">File</tspan></text>
    <text transform="translate(395 22) scale(0.5 0.5)" class="cls-9"><tspan class="cls-10">VCS</tspan></text>
    <text transform="translate(434 22) scale(0.5 0.5)" class="cls-9"><tspan class="cls-10">Window</tspan></text>
    <text transform="translate(497 22) scale(0.5 0.5)" class="cls-9"><tspan class="cls-10">Help</tspan></text>
    <text transform="translate(351 22) scale(0.5 0.5)" class="cls-9"><tspan class="cls-10">Tools</tspan></text>
    <text transform="translate(307 22) scale(0.5 0.5)" class="cls-9"><tspan class="cls-10">Run</tspan></text>
    <text transform="translate(44 22) scale(0.5 0.5)" class="cls-9"><tspan class="cls-10">Edit</tspan></text>
    <text transform="translate(82 22) scale(0.5 0.5)" class="cls-9"><tspan class="cls-10">View</tspan></text>
    <text transform="translate(128 22) scale(0.5 0.5)" class="cls-9"><tspan class="cls-10">Navigate</tspan></text>
    <text transform="translate(241 22) scale(0.5 0.5)" class="cls-9"><tspan class="cls-10">Refactor</tspan></text>
    <path d="M26.000,54.000 L12.000,54.000 L12.000,42.000 L18.000,42.000 L20.000,44.000 L26.000,44.000 L26.000,54.000 Z" class="cls-11" />
    <rect x="14" y="46" width="10" height="6" class="cls-5" />
    <text transform="translate(146 53) scale(0.5 0.5)" class="cls-6"><tspan class="cls-7">test</tspan></text>
    <text transform="translate(418 53) scale(0.5 0.5)" class="cls-6"><tspan class="cls-7">testsdk.py</tspan></text>
    <text transform="translate(465 88) scale(0.5 0.5)" class="cls-6"><tspan class="cls-12">from</tspan></text>
    <text transform="translate(670 88) scale(0.5 0.5)" class="cls-6"><tspan class="cls-12">import</tspan></text>
    <text transform="translate(500 88) scale(0.5 0.5)" class="cls-6"><tspan class="cls-13">tspublicrestapi.tspu...</tspan></text>
    <text transform="translate(720 88) scale(0.5 0.5)" class="cls-6"><tspan class="cls-13">Tspublicrestap...</tspan></text>
    <text transform="translate(412 87) scale(0.5 0.5)" class="cls-6"><tspan class="cls-14">1</tspan></text>
    <text transform="translate(412 111) scale(0.5 0.5)" class="cls-6"><tspan class="cls-14">2</tspan></text>
    <text transform="translate(412 136) scale(0.5 0.5)" class="cls-6"><tspan class="cls-14">3</tspan></text>
    <path d="M494.853,47.901 L492.753,49.998 L494.853,52.096 L494.853,52.096 C494.949,52.192 495.008,52.324 495.008,52.470 C495.008,52.763 494.771,53.000 494.478,53.000 C494.331,53.000 494.199,52.941 494.103,52.845 L494.103,52.845 L492.002,50.747 L489.902,52.845 L489.902,52.845 C489.806,52.941 489.673,53.000 489.527,53.000 C489.234,53.000 488.996,52.763 488.996,52.470 C488.996,52.324 489.055,52.192 489.151,52.096 L489.151,52.096 L491.252,49.998 L489.151,47.901 L489.151,47.901 C489.055,47.805 488.996,47.673 488.996,47.527 C488.996,47.234 489.234,46.997 489.527,46.997 C489.673,46.997 489.806,47.056 489.902,47.152 L489.902,47.152 L492.002,49.249 L494.103,47.152 L494.103,47.152 C494.199,47.056 494.331,46.997 494.478,46.997 C494.771,46.997 495.008,47.234 495.008,47.527 C495.008,47.673 494.949,47.805 494.853,47.901 L494.853,47.901 Z" class="cls-8" />
    <path d="M141.000,54.000 L127.000,54.000 L127.000,42.000 L133.000,42.000 L135.000,44.000 L141.000,44.000 L141.000,54.000 Z" class="cls-11" />
    <rect x="129" y="46" width="10" height="6" class="cls-5" />
    <text transform="translate(39 113) scale(0.5 0.5)" class="cls-6"><tspan class="cls-7">Tspublicrest...</tspan></text>
    <text transform="translate(147 113) scale(0.5 0.5)" class="cls-6"><tspan class="cls-7">C:\Users\Username\Desktop\Tspublicrest...</tspan></text>
    <path d="M34.000,114.000 L20.000,114.000 L20.000,102.000 L26.000,102.000 L28.000,104.000 L34.000,104.000 L34.000,114.000 Z" class="cls-11" />
    <rect x="22" y="106" width="10" height="6" class="cls-3" />
    <text transform="translate(64 133) scale(0.5 0.5)" class="cls-6"><tspan class="cls-7">tspublicrestapi</tspan></text>
    <path d="M59.000,135.000 L45.000,135.000 L45.000,123.000 L51.000,123.000 L53.000,125.000 L59.000,125.000 L59.000,135.000 Z" class="cls-11" />
    <rect x="47" y="127" width="10" height="6" class="cls-3" />
    <path d="M33.991,152.000 L30.990,147.000 L36.992,147.000 L33.991,152.000 Z" class="cls-8" />
    <text transform="translate(64 153) scale(0.5 0.5)" class="cls-6"><tspan class="cls-7">test</tspan></text>
    <text transform="translate(64 204) scale(0.5 0.5)" class="cls-6"><tspan class="cls-7">LICENSE</tspan></text>
    <text transform="translate(64 225) scale(0.5 0.5)" class="cls-6"><tspan class="cls-7">README.md</tspan></text>
    <text transform="translate(44 265) scale(0.5 0.5)" class="cls-6"><tspan class="cls-7">External Libraries</tspan></text>
    <text transform="translate(78 177) scale(0.5 0.5)" class="cls-6"><tspan class="cls-7">testsdk.py</tspan></text>
    <path d="M72.000,169.727 L72.000,182.000 L61.000,182.000 L61.000,167.000 L69.250,167.000 L72.000,169.727 Z" class="cls-15" />
    <path d="M70.625,171.091 L67.875,171.091 L67.875,168.364 L62.375,168.364 L62.375,180.636 L70.625,180.636 L70.625,171.091 Z" class="cls-16" />
    <path d="M58.000,193.727 L58.000,206.000 L47.000,206.000 L47.000,191.000 L55.250,191.000 L58.000,193.727 Z" class="cls-15" />
    <path d="M56.625,195.091 L53.875,195.091 L53.875,192.364 L48.375,192.364 L48.375,204.636 L56.625,204.636 L56.625,195.091 Z" class="cls-2" />
    <path d="M58.000,214.727 L58.000,227.000 L47.000,227.000 L47.000,212.000 L55.250,212.000 L58.000,214.727 Z" class="cls-15" />
    <path d="M56.625,216.091 L53.875,216.091 L53.875,213.364 L48.375,213.364 L48.375,225.636 L56.625,225.636 L56.625,216.091 Z" class="cls-2" />
    <text transform="translate(64 245) scale(0.5 0.5)" class="cls-6"><tspan class="cls-7">requirements.txt</tspan></text>
    <path d="M58.000,235.727 L58.000,248.000 L47.000,248.000 L47.000,233.000 L55.250,233.000 L58.000,235.727 Z" class="cls-15" />
    <path d="M56.625,237.091 L53.875,237.091 L53.875,234.364 L48.375,234.364 L48.375,246.636 L56.625,246.636 L56.625,237.091 Z" class="cls-2" />
    <path d="M59.000,155.000 L45.000,155.000 L45.000,143.000 L51.000,143.000 L53.000,145.000 L59.000,145.000 L59.000,155.000 Z" class="cls-11" />
    <rect x="47" y="147" width="10" height="6" class="cls-3" />
    <path d="M0.000,33.000 L0.000,32.000 L851.000,32.000 L851.000,33.000 L0.000,33.000 Z" class="cls-8" />
    <path d="M0.000,65.000 L0.000,64.000 L851.000,64.000 L851.000,65.000 L0.000,65.000 Z" class="cls-8" />
    <path d="M0.000,94.000 L0.000,93.000 L402.000,93.000 L402.000,94.000 L0.000,94.000 Z" class="cls-8" />
    <path d="M402.000,64.000 L403.000,64.000 L403.000,539.000 L402.000,539.000 L402.000,64.000 Z" class="cls-8" />
    <path d="M456.000,64.000 L457.000,64.000 L457.000,539.000 L456.000,539.000 L456.000,64.000 Z" class="cls-8" />
    <path d="M499.000,33.000 L500.000,33.000 L500.000,60.000 L499.000,60.000 L499.000,33.000 Z" class="cls-8" />
    <path d="M842.000,59.000 L842.000,60.000 L499.000,60.000 L499.000,59.000 L842.000,59.000 Z" class="cls-8" />
    <path d="M112.553,37.224 L113.447,36.776 L119.447,48.776 L118.553,49.224 L112.553,37.224 Z" class="cls-8" />
    <path d="M118.578,48.732 L119.422,49.268 L112.422,60.268 L111.578,59.732 L118.578,48.732 Z" class="cls-8" />
    <path d="M169.553,37.224 L170.447,36.776 L176.447,48.776 L175.553,49.224 L169.553,37.224 Z" class="cls-8" />
    <path d="M175.578,48.732 L176.422,49.268 L169.422,60.268 L168.578,59.732 L175.578,48.732 Z" class="cls-8" />
    <text transform="translate(200 53) scale(0.5 0.5)" class="cls-6"><tspan class="cls-7">testsdk.py</tspan></text>
    <path d="M195.000,54.000 L181.000,54.000 L181.000,42.000 L187.000,42.000 L189.000,44.000 L195.000,44.000 L195.000,54.000 Z" class="cls-11" />
    <rect x="183" y="46" width="10" height="6" class="cls-5" />
    <path d="M266.553,37.224 L267.447,36.776 L273.447,48.776 L272.553,49.224 L266.553,37.224 Z" class="cls-8" />
    <path d="M272.578,48.732 L273.422,49.268 L266.422,60.268 L265.578,59.732 L272.578,48.732 Z" class="cls-8" />
    <path d="M115.000,64.000 L116.000,64.000 L116.000,93.000 L115.000,93.000 L115.000,64.000 Z" class="cls-8" />
    <path d="M403.000,64.000 L402.000,64.000 L402.000,33.000 L403.000,33.000 L403.000,64.000 Z" class="cls-8" />
</svg>
