<?xml version="1.0" encoding="UTF-8" standalone="no" ?>
<svg xmlns="http://www.w3.org/2000/svg" xmlns:xlink="http://www.w3.org/1999/xlink" preserveAspectRatio="xMidYMid" width="419" height="209" viewBox="0 0 419 209">
    <defs>
        <style>
            .cls-1 {
            fill: #f7f7f7;
            }

            .cls-1, .cls-2 {
            stroke: #c5c5c5;
            }

            .cls-1, .cls-17, .cls-18, .cls-2 {
            stroke-linejoin: round;
            stroke-width: 1px;
            }

            .cls-12, .cls-14, .cls-2, .cls-3 {
            fill: #fff;
            }

            .cls-4 {
            fill: #3a3935;
            }

            .cls-13, .cls-14, .cls-15, .cls-16, .cls-22, .cls-23, .cls-24, .cls-4 {
            fill-rule: evenodd;
            }

            .cls-16, .cls-5 {
            fill: #3875d6;
            }

            .cls-6, .cls-7 {
            font-size: 16px;
            }

            .cls-11, .cls-7 {
            fill: #101010;
            }

            .cls-11, .cls-12, .cls-19, .cls-20, .cls-7, .cls-9 {
            font-family: "Myriad Pro";
            }

            .cls-8, .cls-9 {
            font-size: 10.667px;
            }

            .cls-9 {
            fill: #898989;
            }

            .cls-10, .cls-11, .cls-12, .cls-19, .cls-20 {
            font-size: 13.333px;
            }

            .cls-13 {
            fill: #adadad;
            }

            .cls-15 {
            fill: #bd9662;
            }

            .cls-17 {
            fill: #447cd6;
            }

            .cls-17, .cls-18 {
            stroke: #8b8b8b;
            }

            .cls-18 {
            fill: #e5e5e5;
            }

            .cls-19 {
            fill: #1c1c1c;
            }

            .cls-20, .cls-24 {
            fill: #87629a;
            }

            .cls-21, .cls-22 {
            fill: #e4e4e4;
            }

            .cls-23 {
            fill: #969696;
            }
        </style>
    </defs>
    <rect width="419" height="209" class="cls-1" />
    <rect x="11" y="69" width="382" height="22" class="cls-2" />
    <rect x="11" y="94" width="400" height="51" class="cls-2" />
    <rect x="1" y="1" width="417" height="29" class="cls-3" />
    <path d="M410.582,11.806 L407.726,14.701 L410.582,17.596 L410.582,17.596 C410.712,17.728 410.793,17.911 410.793,18.113 C410.793,18.516 410.470,18.844 410.072,18.844 C409.872,18.844 409.692,18.762 409.562,18.629 L409.562,18.629 L406.706,15.735 L403.851,18.629 L403.851,18.629 C403.720,18.762 403.540,18.844 403.341,18.844 C402.943,18.844 402.620,18.516 402.620,18.113 C402.620,17.911 402.700,17.728 402.831,17.596 L402.831,17.596 L405.686,14.701 L402.831,11.806 L402.831,11.806 C402.700,11.674 402.620,11.491 402.620,11.289 C402.620,10.885 402.943,10.558 403.341,10.558 C403.540,10.558 403.720,10.640 403.851,10.772 L403.851,10.772 L406.706,13.667 L409.562,10.772 L409.562,10.772 C409.692,10.640 409.872,10.558 410.072,10.558 C410.470,10.558 410.793,10.885 410.793,11.289 C410.793,11.491 410.712,11.674 410.582,11.806 L410.582,11.806 Z" class="cls-4" />
    <rect x="11" y="119" width="399" height="19" class="cls-5" />
    <text x="14" y="20" class="cls-6"><tspan class="cls-7">Open File or Project</tspan></text>
    <text x="54" y="157" class="cls-8"><tspan class="cls-9">Drag and drop a file into space above to quickly locate it in the tree</tspan></text>
    <text x="18" y="85" class="cls-10"><tspan class="cls-11">C:\Users\Username\Desktop\Tspublicrestapi-Python</tspan></text>
    <text x="112" y="114" class="cls-10"><tspan class="cls-11">Desktop</tspan></text>
    <text x="133" y="134" class="cls-10"><tspan class="cls-12">Tspublicrestapi-Python</tspan></text>
    <path d="M78.820,112.477 L74.931,105.741 L82.709,105.741 L78.820,112.477 Z" class="cls-13" />
    <path d="M102.009,130.008 L94.990,134.007 L94.990,126.010 L102.009,130.008 Z" class="cls-14" />
    <path d="M108.000,105.000 L108.000,115.000 L94.000,115.000 L94.000,103.000 L100.000,103.000 L102.000,105.000 L108.000,105.000 Z" class="cls-15" />
    <path d="M106.000,107.000 L106.000,113.000 L96.000,113.000 L96.000,107.000 L106.000,107.000 Z" class="cls-14" />
    <path d="M127.000,125.000 L127.000,135.000 L113.000,135.000 L113.000,123.000 L119.000,123.000 L121.000,125.000 L127.000,125.000 Z" class="cls-15" />
    <path d="M125.000,127.000 L125.000,133.000 L115.000,133.000 L115.000,127.000 L125.000,127.000 Z" class="cls-16" />
    <rect x="206" y="179" width="59" height="25" rx="3" ry="3" class="cls-17" />
    <rect x="278" y="179" width="59" height="25" rx="3" ry="3" class="cls-18" />
    <rect x="349" y="179" width="59" height="25" rx="3" ry="3" class="cls-18" />
    <text x="227" y="196" class="cls-10"><tspan class="cls-12">OK</tspan></text>
    <text x="289" y="196" class="cls-10"><tspan class="cls-19">Cancel</tspan></text>
    <text x="365" y="196" class="cls-10"><tspan class="cls-19">Help</tspan></text>
    <text x="358" y="58" class="cls-10"><tspan class="cls-20">Hide path</tspan></text>
    <rect x="15" y="42" width="17" height="17" class="cls-21" />
    <rect x="38" y="42" width="17" height="17" class="cls-21" />
    <rect x="61" y="42" width="17" height="17" class="cls-21" />
    <rect x="92" y="42" width="17" height="17" class="cls-21" />
    <rect x="146" y="42" width="17" height="17" class="cls-21" />
    <rect x="177" y="42" width="17" height="17" class="cls-21" />
    <rect x="115" y="42" width="17" height="17" class="cls-21" />
    <path d="M84.000,37.000 L85.000,37.000 L85.000,66.000 L84.000,66.000 L84.000,37.000 Z" class="cls-22" />
    <path d="M139.000,37.000 L140.000,37.000 L140.000,66.000 L139.000,66.000 L139.000,37.000 Z" class="cls-22" />
    <path d="M169.000,37.000 L170.000,37.000 L170.000,66.000 L169.000,66.000 L169.000,37.000 Z" class="cls-22" />
    <path d="M407.000,78.000 L407.000,88.000 L396.000,88.000 L396.000,78.000 L398.000,79.000 L398.000,86.000 L405.000,86.000 L405.000,80.000 L407.000,78.000 Z" class="cls-23" />
    <path d="M399.000,83.000 L399.000,82.000 L404.000,82.000 L404.000,83.000 L399.000,83.000 Z" class="cls-23" />
    <path d="M399.000,85.000 L399.000,84.000 L404.000,84.000 L404.000,85.000 L399.000,85.000 Z" class="cls-23" />
    <path d="M407.000,76.000 L402.000,81.000 L401.000,81.000 L396.000,76.000 L396.000,74.000 L398.000,74.000 L400.000,76.000 L400.000,72.000 L403.000,72.000 L403.000,76.000 L405.000,74.000 L407.000,74.000 L407.000,76.000 Z" class="cls-24" />
</svg>
