<?xml version="1.0" encoding="UTF-8" standalone="no" ?>
<svg xmlns="http://www.w3.org/2000/svg" xmlns:xlink="http://www.w3.org/1999/xlink" preserveAspectRatio="xMidYMid" width="850" height="540" viewBox="0 0 850 540">
    <defs>
        <style>
            .cls-1, .cls-8 {
            fill: #e8e8e8;
            }

            .cls-1 {
            stroke: #cacace;
            }

            .cls-1, .cls-17, .cls-23 {
            stroke-linejoin: round;
            stroke-width: 1px;
            }

            .cls-16, .cls-2 {
            fill: #acacac;
            }

            .cls-3, .cls-4, .cls-5, .cls-9 {
            font-size: 24px;
            }

            .cls-4 {
            fill: #747474;
            }

            .cls-4, .cls-5, .cls-9 {
            font-family: "Myriad Pro";
            }

            .cls-5 {
            fill: #52639b;
            }

            .cls-15, .cls-21, .cls-26, .cls-6 {
            fill: #fff;
            }

            .cls-7 {
            fill: #c5cede;
            }

            .cls-9 {
            fill: #4d4a55;
            }

            .cls-10 {
            fill: #a0a0a0;
            }

            .cls-10, .cls-13, .cls-14, .cls-15, .cls-16, .cls-17, .cls-18, .cls-22, .cls-23 {
            fill-rule: evenodd;
            }

            .cls-11, .cls-12 {
            font-size: 23px;
            }

            .cls-12 {
            fill: #bebdbd;
            }

            .cls-12, .cls-20, .cls-21, .cls-25, .cls-26, .cls-27, .cls-28 {
            font-family: "Open Sans";
            }

            .cls-13 {
            fill: #bd9662;
            }

            .cls-14 {
            fill: #919191;
            }

            .cls-17, .cls-23 {
            fill: #f6f6f6;
            stroke: #d1d2de;
            }

            .cls-18 {
            fill: #007acc;
            }

            .cls-19, .cls-20, .cls-21 {
            font-size: 35.857px;
            }

            .cls-20, .cls-27 {
            fill: #cdcdd1;
            }

            .cls-22, .cls-28 {
            fill: #cacace;
            }

            .cls-23 {
            filter: url(#drop-shadow-1);
            }

            .cls-24, .cls-25, .cls-26, .cls-27, .cls-28 {
            font-size: 32.869px;
            }

            .cls-25 {
            fill: #d3d3d6;
            }
        </style>

        <filter id="drop-shadow-1" filterUnits="userSpaceOnUse">
            <feOffset dx="2.487" dy="1.678" in="SourceAlpha" />
            <feGaussianBlur stdDeviation="2" result="dropBlur" />
            <feFlood flood-opacity="0.27" />
            <feComposite operator="in" in2="dropBlur" result="dropShadowComp" />
            <feComposite in="SourceGraphic" result="shadowed" />
        </filter>
    </defs>
    <rect width="850" height="540" class="cls-1" />
    <rect x="403" y="65" width="446" height="474" class="cls-2" />
    <text transform="translate(626 348) scale(0.5 0.5)" class="cls-3"><tspan class="cls-4">Search Everywhere</tspan></text>
    <text transform="translate(626 377) scale(0.5 0.5)" class="cls-3"><tspan class="cls-4">Go to File</tspan></text>
    <text transform="translate(626 404) scale(0.5 0.5)" class="cls-3"><tspan class="cls-4">recent Files</tspan></text>
    <text transform="translate(626 431) scale(0.5 0.5)" class="cls-3"><tspan class="cls-4">Navigation Bar</tspan></text>
    <text transform="translate(626 458) scale(0.5 0.5)" class="cls-3"><tspan class="cls-4">Drop files here to open</tspan></text>
    <text transform="translate(728 348) scale(0.5 0.5)" class="cls-3"><tspan class="cls-5">Double Shift</tspan></text>
    <text transform="translate(681 377) scale(0.5 0.5)" class="cls-3"><tspan class="cls-5">Ctrl+Shift+N</tspan></text>
    <text transform="translate(688 404) scale(0.5 0.5)" class="cls-3"><tspan class="cls-5">Ctrl+E</tspan></text>
    <text transform="translate(705 431) scale(0.5 0.5)" class="cls-3"><tspan class="cls-5">Alt+Home</tspan></text>
    <rect x="1" y="94" width="401" height="445" class="cls-6" />
    <rect x="1" y="65" width="401" height="28" class="cls-7" />
    <rect x="1" y="94" width="401" height="26" class="cls-8" />
    <text transform="translate(31 53) scale(0.5 0.5)" class="cls-3"><tspan class="cls-9">Tspublicrest...</tspan></text>
    <text transform="translate(39 83) scale(0.5 0.5)" class="cls-3"><tspan class="cls-9">project</tspan></text>
    <path d="M97.694,83.000 L94.771,77.937 L100.617,77.937 L97.694,83.000 Z" class="cls-10" />
    <path d="M10.694,111.000 L7.771,105.937 L13.617,105.937 L10.694,111.000 Z" class="cls-10" />
    <path d="M13.000,214.009 L8.000,217.010 L8.000,211.008 L13.000,214.009 Z" class="cls-10" />
    <path d="M36.000,129.009 L31.000,132.010 L31.000,126.008 L36.000,129.009 Z" class="cls-10" />
    <text transform="translate(195 22) scale(0.5 0.5)" class="cls-11"><tspan class="cls-12">Code</tspan></text>
    <text transform="translate(11 22) scale(0.5 0.5)" class="cls-11"><tspan class="cls-12">File</tspan></text>
    <text transform="translate(395 22) scale(0.5 0.5)" class="cls-11"><tspan class="cls-12">VCS</tspan></text>
    <text transform="translate(434 22) scale(0.5 0.5)" class="cls-11"><tspan class="cls-12">Window</tspan></text>
    <text transform="translate(497 22) scale(0.5 0.5)" class="cls-11"><tspan class="cls-12">Help</tspan></text>
    <text transform="translate(351 22) scale(0.5 0.5)" class="cls-11"><tspan class="cls-12">Tools</tspan></text>
    <text transform="translate(307 22) scale(0.5 0.5)" class="cls-11"><tspan class="cls-12">Run</tspan></text>
    <text transform="translate(44 22) scale(0.5 0.5)" class="cls-11"><tspan class="cls-12">Edit</tspan></text>
    <text transform="translate(82 22) scale(0.5 0.5)" class="cls-11"><tspan class="cls-12">View</tspan></text>
    <text transform="translate(128 22) scale(0.5 0.5)" class="cls-11"><tspan class="cls-12">Navigate</tspan></text>
    <text transform="translate(241 22) scale(0.5 0.5)" class="cls-11"><tspan class="cls-12">Refactor</tspan></text>
    <path d="M26.000,54.000 L12.000,54.000 L12.000,42.000 L18.000,42.000 L20.000,44.000 L26.000,44.000 L26.000,54.000 Z" class="cls-13" />
    <rect x="14" y="46" width="10" height="6" class="cls-8" />
    <text transform="translate(39 113) scale(0.5 0.5)" class="cls-3"><tspan class="cls-9">Tspublicrest...</tspan></text>
    <path d="M34.000,114.000 L20.000,114.000 L20.000,102.000 L26.000,102.000 L28.000,104.000 L34.000,104.000 L34.000,114.000 Z" class="cls-13" />
    <rect x="22" y="106" width="10" height="6" class="cls-8" />
    <text transform="translate(64 133) scale(0.5 0.5)" class="cls-3"><tspan class="cls-9">tspublicrestapi</tspan></text>
    <path d="M59.000,135.000 L45.000,135.000 L45.000,123.000 L51.000,123.000 L53.000,125.000 L59.000,125.000 L59.000,135.000 Z" class="cls-13" />
    <rect x="47" y="127" width="10" height="6" class="cls-6" />
    <text transform="translate(64 177) scale(0.5 0.5)" class="cls-3"><tspan class="cls-9">README</tspan></text>
    <text transform="translate(64 197) scale(0.5 0.5)" class="cls-3"><tspan class="cls-9">requirements</tspan></text>
    <text transform="translate(44 218) scale(0.5 0.5)" class="cls-3"><tspan class="cls-9">External Libraries</tspan></text>
    <path d="M58.000,166.727 L58.000,179.000 L47.000,179.000 L47.000,164.000 L55.250,164.000 L58.000,166.727 Z" class="cls-14" />
    <path d="M56.625,168.091 L53.875,168.091 L53.875,165.364 L48.375,165.364 L48.375,177.636 L56.625,177.636 L56.625,168.091 Z" class="cls-15" />
    <text transform="translate(64 155) scale(0.5 0.5)" class="cls-3"><tspan class="cls-9">LICENSE</tspan></text>
    <path d="M58.000,144.727 L58.000,157.000 L47.000,157.000 L47.000,142.000 L55.250,142.000 L58.000,144.727 Z" class="cls-14" />
    <path d="M56.625,146.091 L53.875,146.091 L53.875,143.364 L48.375,143.364 L48.375,155.636 L56.625,155.636 L56.625,146.091 Z" class="cls-15" />
    <path d="M58.000,186.727 L58.000,199.000 L47.000,199.000 L47.000,184.000 L55.250,184.000 L58.000,186.727 Z" class="cls-14" />
    <path d="M56.625,188.091 L53.875,188.091 L53.875,185.364 L48.375,185.364 L48.375,197.636 L56.625,197.636 L56.625,188.091 Z" class="cls-15" />
    <path d="M0.000,33.000 L0.000,32.000 L851.000,32.000 L851.000,33.000 L0.000,33.000 Z" class="cls-10" />
    <path d="M0.000,65.000 L0.000,64.000 L851.000,64.000 L851.000,65.000 L0.000,65.000 Z" class="cls-10" />
    <path d="M0.000,94.000 L0.000,93.000 L402.000,93.000 L402.000,94.000 L0.000,94.000 Z" class="cls-10" />
    <path d="M402.000,64.000 L403.000,64.000 L403.000,539.000 L402.000,539.000 L402.000,64.000 Z" class="cls-16" />
    <path d="M129.553,37.224 L130.447,36.776 L136.447,48.776 L135.553,49.224 L129.553,37.224 Z" class="cls-10" />
    <path d="M135.578,48.732 L136.422,49.268 L129.422,60.268 L128.578,59.732 L135.578,48.732 Z" class="cls-10" />
    <path d="M115.000,64.000 L116.000,64.000 L116.000,93.000 L115.000,93.000 L115.000,64.000 Z" class="cls-10" />
    <path d="M130.008,98.000 L393.741,98.000 L393.741,528.000 L130.605,528.000 " class="cls-17" />
    <path d="M130.000,98.000 L393.748,98.000 L393.748,120.485 L130.000,120.485 L130.000,98.000 Z" class="cls-18" />
    <text transform="translate(167 137) scale(0.32 0.32)" class="cls-19"><tspan class="cls-20">Cut</tspan></text>
    <text transform="translate(167 113) scale(0.32 0.32)" class="cls-19"><tspan class="cls-21">New</tspan></text>
    <text transform="translate(167 155) scale(0.32 0.32)" class="cls-19"><tspan class="cls-20">Copy</tspan></text>
    <text transform="translate(167 173) scale(0.32 0.32)" class="cls-19"><tspan class="cls-20">Copy Path</tspan></text>
    <text transform="translate(167 193) scale(0.32 0.32)" class="cls-19"><tspan class="cls-20">Copy as Plain Text</tspan></text>
    <text transform="translate(167 211) scale(0.32 0.32)" class="cls-19"><tspan class="cls-20">Copy as Reference</tspan></text>
    <text transform="translate(167 230) scale(0.32 0.32)" class="cls-19"><tspan class="cls-20">Paste</tspan></text>
    <text transform="translate(167 250) scale(0.32 0.32)" class="cls-19"><tspan class="cls-20">Find Usages</tspan></text>
    <text transform="translate(167 268) scale(0.32 0.32)" class="cls-19"><tspan class="cls-20">Find in Path...</tspan></text>
    <text transform="translate(167 288) scale(0.32 0.32)" class="cls-19"><tspan class="cls-20">Replace in Path...</tspan></text>
    <text transform="translate(167 306) scale(0.32 0.32)" class="cls-19"><tspan class="cls-20">Inspect Code...</tspan></text>
    <text transform="translate(167 324) scale(0.32 0.32)" class="cls-19"><tspan class="cls-20">Refractor</tspan></text>
    <text transform="translate(167 344) scale(0.32 0.32)" class="cls-19"><tspan class="cls-20">Add to Favorites</tspan></text>
    <text transform="translate(167 362) scale(0.32 0.32)" class="cls-19"><tspan class="cls-20">Show Image Thumbnails</tspan></text>
    <text transform="translate(167 381) scale(0.32 0.32)" class="cls-19"><tspan class="cls-20">Run 'Tspublicrest...'</tspan></text>
    <text transform="translate(167 401) scale(0.32 0.32)" class="cls-19"><tspan class="cls-20">Debug 'Tspublicrest...'</tspan></text>
    <text transform="translate(167 419) scale(0.32 0.32)" class="cls-19"><tspan class="cls-20">Run 'Tspublicrest...'</tspan></text>
    <text transform="translate(167 439) scale(0.32 0.32)" class="cls-19"><tspan class="cls-20">Create 'Tspublicrest...'...</tspan></text>
    <text transform="translate(167 458) scale(0.32 0.32)" class="cls-19"><tspan class="cls-20">Compare with...</tspan></text>
    <text transform="translate(167 476) scale(0.32 0.32)" class="cls-19"><tspan class="cls-20">Mark Directry as</tspan></text>
    <text transform="translate(167 496) scale(0.32 0.32)" class="cls-19"><tspan class="cls-20">Composer</tspan></text>
    <text transform="translate(167 514) scale(0.32 0.32)" class="cls-19"><tspan class="cls-20">Create Gist...</tspan></text>
    <path d="M391.854,235.610 L391.854,236.568 L133.804,236.568 L133.804,235.610 L391.854,235.610 Z" class="cls-22" />
    <path d="M391.854,311.099 L391.854,312.057 L133.804,312.057 L133.804,311.099 L391.854,311.099 Z" class="cls-22" />
    <path d="M391.854,329.255 L391.854,330.213 L133.804,330.213 L133.804,329.255 L391.854,329.255 Z" class="cls-22" />
    <g style="fill: #f6f6f6; filter: url(#drop-shadow-1)">
        <path d="M539.005,99.904 L539.005,207.333 L388.963,207.333 L388.963,100.001 L539.005,99.904 Z" id="path-1" style="stroke: inherit; filter: none; fill: inherit" class="cls-23" />
    </g>
    <use xlink:href="#path-1" style="stroke: #d1d2de; filter: none; fill: none" />
    <path d="M390.284,119.978 L537.059,119.978 L537.059,138.133 L390.284,138.133 L390.284,119.978 Z" class="cls-18" />
    <text transform="translate(405 115) scale(0.32 0.32)" class="cls-24"><tspan class="cls-25">File</tspan></text>
    <text transform="translate(405 132) scale(0.32 0.32)" class="cls-24"><tspan class="cls-26">Directory</tspan></text>
    <text transform="translate(405 149) scale(0.32 0.32)" class="cls-24"><tspan class="cls-27">Python Package</tspan></text>
    <text transform="translate(405 166) scale(0.32 0.32)" class="cls-24"><tspan class="cls-28">Python file</tspan></text>
    <text transform="translate(405 182) scale(0.32 0.32)" class="cls-24"><tspan class="cls-27">Jupyter Notebook</tspan></text>
    <text transform="translate(405 198) scale(0.32 0.32)" class="cls-24"><tspan class="cls-27">HTML File</tspan></text>
    <path d="M537.428,170.627 L537.428,171.106 L390.542,171.106 L390.542,170.627 L537.428,170.627 Z" class="cls-22" />
</svg>
