<?xml version="1.0" encoding="UTF-8" standalone="no" ?>
<svg xmlns="http://www.w3.org/2000/svg" xmlns:xlink="http://www.w3.org/1999/xlink" preserveAspectRatio="xMidYMid" width="850" height="540" viewBox="0 0 850 540">
    <defs>
        <style>
            .cls-1, .cls-7 {
            fill: #e8e8e8;
            }

            .cls-1 {
            stroke: #cacace;
            }

            .cls-1, .cls-16 {
            stroke-linejoin: round;
            stroke-width: 1px;
            }

            .cls-2, .cls-22, .cls-23, .cls-24, .cls-3, .cls-4, .cls-8 {
            font-size: 24px;
            }

            .cls-3 {
            fill: #747474;
            }

            .cls-24, .cls-3, .cls-4, .cls-8 {
            font-family: "Myriad Pro";
            }

            .cls-4 {
            fill: #52639b;
            }

            .cls-14, .cls-20, .cls-5 {
            fill: #fff;
            }

            .cls-6 {
            fill: #c5cede;
            }

            .cls-8 {
            fill: #4d4a55;
            }

            .cls-24, .cls-9 {
            fill: #a0a0a0;
            }

            .cls-12, .cls-13, .cls-14, .cls-15, .cls-16, .cls-21, .cls-9 {
            fill-rule: evenodd;
            }

            .cls-10, .cls-11 {
            font-size: 23px;
            }

            .cls-11 {
            fill: #bebdbd;
            }

            .cls-11, .cls-19, .cls-20 {
            font-family: "Open Sans";
            }

            .cls-12 {
            fill: #bd9662;
            }

            .cls-13 {
            fill: #919191;
            }

            .cls-15 {
            fill: #acacac;
            }

            .cls-16 {
            fill: #f6f6f6;
            stroke: #d1d2de;
            }

            .cls-17 {
            fill: #007acc;
            }

            .cls-18, .cls-19, .cls-20 {
            font-size: 35.857px;
            }

            .cls-19 {
            fill: #cdcdd1;
            }

            .cls-21 {
            fill: #cacace;
            }

            .cls-22 {
            fill: #286cc8;
            }

            .cls-22, .cls-23 {
            font-family: "Courier New";
            }

            .cls-23 {
            fill: #282828;
            }
        </style>
    </defs>
    <rect x="-1" width="850" height="540" class="cls-1" />
    <text transform="translate(625 348) scale(0.5 0.5)" class="cls-2"><tspan class="cls-3">Search Everywhere</tspan></text>
    <text transform="translate(625 377) scale(0.5 0.5)" class="cls-2"><tspan class="cls-3">Go to File</tspan></text>
    <text transform="translate(625 404) scale(0.5 0.5)" class="cls-2"><tspan class="cls-3">recent Files</tspan></text>
    <text transform="translate(625 431) scale(0.5 0.5)" class="cls-2"><tspan class="cls-3">Navigation Bar</tspan></text>
    <text transform="translate(625 458) scale(0.5 0.5)" class="cls-2"><tspan class="cls-3">Drop files here to open</tspan></text>
    <text transform="translate(727 348) scale(0.5 0.5)" class="cls-2"><tspan class="cls-4">Double Shift</tspan></text>
    <text transform="translate(680 377) scale(0.5 0.5)" class="cls-2"><tspan class="cls-4">Ctrl+Shift+N</tspan></text>
    <text transform="translate(687 404) scale(0.5 0.5)" class="cls-2"><tspan class="cls-4">Ctrl+E</tspan></text>
    <text transform="translate(704 431) scale(0.5 0.5)" class="cls-2"><tspan class="cls-4">Alt+Home</tspan></text>
    <rect y="94" width="401" height="445" class="cls-5" />
    <rect y="65" width="401" height="28" class="cls-6" />
    <rect y="157" width="401" height="26" class="cls-7" />
    <text transform="translate(30 53) scale(0.5 0.5)" class="cls-2"><tspan class="cls-8">Tspublicrest...</tspan></text>
    <text transform="translate(38 83) scale(0.5 0.5)" class="cls-2"><tspan class="cls-8">project</tspan></text>
    <path d="M96.694,83.000 L93.771,77.937 L99.617,77.937 L96.694,83.000 Z" class="cls-9" />
    <path d="M9.694,111.000 L6.771,105.937 L12.617,105.937 L9.694,111.000 Z" class="cls-9" />
    <path d="M12.000,255.009 L7.000,258.010 L7.000,252.008 L12.000,255.009 Z" class="cls-9" />
    <path d="M35.000,129.009 L30.000,132.010 L30.000,126.008 L35.000,129.009 Z" class="cls-9" />
    <text transform="translate(194 22) scale(0.5 0.5)" class="cls-10"><tspan class="cls-11">Code</tspan></text>
    <text transform="translate(10 22) scale(0.5 0.5)" class="cls-10"><tspan class="cls-11">File</tspan></text>
    <text transform="translate(394 22) scale(0.5 0.5)" class="cls-10"><tspan class="cls-11">VCS</tspan></text>
    <text transform="translate(433 22) scale(0.5 0.5)" class="cls-10"><tspan class="cls-11">Window</tspan></text>
    <text transform="translate(496 22) scale(0.5 0.5)" class="cls-10"><tspan class="cls-11">Help</tspan></text>
    <text transform="translate(350 22) scale(0.5 0.5)" class="cls-10"><tspan class="cls-11">Tools</tspan></text>
    <text transform="translate(306 22) scale(0.5 0.5)" class="cls-10"><tspan class="cls-11">Run</tspan></text>
    <text transform="translate(43 22) scale(0.5 0.5)" class="cls-10"><tspan class="cls-11">Edit</tspan></text>
    <text transform="translate(81 22) scale(0.5 0.5)" class="cls-10"><tspan class="cls-11">View</tspan></text>
    <text transform="translate(127 22) scale(0.5 0.5)" class="cls-10"><tspan class="cls-11">Navigate</tspan></text>
    <text transform="translate(240 22) scale(0.5 0.5)" class="cls-10"><tspan class="cls-11">Refactor</tspan></text>
    <path d="M25.000,54.000 L11.000,54.000 L11.000,42.000 L17.000,42.000 L19.000,44.000 L25.000,44.000 L25.000,54.000 Z" class="cls-12" />
    <rect x="13" y="46" width="10" height="6" class="cls-7" />
    <text transform="translate(212 53) scale(0.5 0.5)" class="cls-2"><tspan class="cls-8">testsdk.py</tspan></text>
    <text transform="translate(38 113) scale(0.5 0.5)" class="cls-2"><tspan class="cls-8">Tspublicrest...</tspan></text>
    <text transform="translate(133 113) scale(0.5 0.5)" class="cls-2"><tspan class="cls-8">C:\Users\Username\Desktop\Tspublicrest...</tspan></text>
    <path d="M33.000,114.000 L19.000,114.000 L19.000,102.000 L25.000,102.000 L27.000,104.000 L33.000,104.000 L33.000,114.000 Z" class="cls-12" />
    <rect x="21" y="106" width="10" height="6" class="cls-7" />
    <text transform="translate(63 133) scale(0.5 0.5)" class="cls-2"><tspan class="cls-8">tspublicrestapi</tspan></text>
    <path d="M58.000,135.000 L44.000,135.000 L44.000,123.000 L50.000,123.000 L52.000,125.000 L58.000,125.000 L58.000,135.000 Z" class="cls-12" />
    <rect x="46" y="127" width="10" height="6" class="cls-5" />
    <path d="M32.991,153.000 L29.990,148.000 L35.992,148.000 L32.991,153.000 Z" class="cls-9" />
    <text transform="translate(63 154) scale(0.5 0.5)" class="cls-2"><tspan class="cls-8">test</tspan></text>
    <text transform="translate(78 174) scale(0.5 0.5)" class="cls-2"><tspan class="cls-8">testsdk.py</tspan></text>
    <path d="M58.000,156.000 L44.000,156.000 L44.000,144.000 L50.000,144.000 L52.000,146.000 L58.000,146.000 L58.000,156.000 Z" class="cls-12" />
    <rect x="46" y="148" width="10" height="6" class="cls-5" />
    <text transform="translate(43 259) scale(0.5 0.5)" class="cls-2"><tspan class="cls-8">External Libraries</tspan></text>
    <text transform="translate(61 198) scale(0.5 0.5)" class="cls-2"><tspan class="cls-8">LICENSE</tspan></text>
    <text transform="translate(61 219) scale(0.5 0.5)" class="cls-2"><tspan class="cls-8">README.md</tspan></text>
    <path d="M55.000,187.727 L55.000,200.000 L44.000,200.000 L44.000,185.000 L52.250,185.000 L55.000,187.727 Z" class="cls-13" />
    <path d="M53.625,189.091 L50.875,189.091 L50.875,186.364 L45.375,186.364 L45.375,198.636 L53.625,198.636 L53.625,189.091 Z" class="cls-14" />
    <path d="M55.000,208.727 L55.000,221.000 L44.000,221.000 L44.000,206.000 L52.250,206.000 L55.000,208.727 Z" class="cls-13" />
    <path d="M53.625,210.091 L50.875,210.091 L50.875,207.364 L45.375,207.364 L45.375,219.636 L53.625,219.636 L53.625,210.091 Z" class="cls-14" />
    <text transform="translate(61 239) scale(0.5 0.5)" class="cls-2"><tspan class="cls-8">requirements.txt</tspan></text>
    <path d="M55.000,229.727 L55.000,242.000 L44.000,242.000 L44.000,227.000 L52.250,227.000 L55.000,229.727 Z" class="cls-13" />
    <path d="M53.625,231.091 L50.875,231.091 L50.875,228.364 L45.375,228.364 L45.375,240.636 L53.625,240.636 L53.625,231.091 Z" class="cls-14" />
    <path d="M72.000,164.727 L72.000,177.000 L61.000,177.000 L61.000,162.000 L69.250,162.000 L72.000,164.727 Z" class="cls-13" />
    <path d="M70.625,166.091 L67.875,166.091 L67.875,163.364 L62.375,163.364 L62.375,175.636 L70.625,175.636 L70.625,166.091 Z" class="cls-14" />
    <path d="M-1.000,33.000 L-1.000,32.000 L850.000,32.000 L850.000,33.000 L-1.000,33.000 Z" class="cls-9" />
    <path d="M-8.000,65.000 L-8.000,64.000 L843.000,64.000 L843.000,65.000 L-8.000,65.000 Z" class="cls-9" />
    <path d="M-1.000,94.000 L-1.000,93.000 L401.000,93.000 L401.000,94.000 L-1.000,94.000 Z" class="cls-9" />
    <path d="M401.000,33.000 L402.000,33.000 L402.000,540.000 L401.000,540.000 L401.000,33.000 Z" class="cls-15" />
    <path d="M128.553,37.224 L129.447,36.776 L135.447,48.776 L134.553,49.224 L128.553,37.224 Z" class="cls-9" />
    <path d="M134.578,48.732 L135.422,49.268 L128.422,60.268 L127.578,59.732 L134.578,48.732 Z" class="cls-9" />
    <text transform="translate(167 53) scale(0.5 0.5)" class="cls-2"><tspan class="cls-8">test</tspan></text>
    <path d="M162.000,54.000 L148.000,54.000 L148.000,42.000 L154.000,42.000 L156.000,44.000 L162.000,44.000 L162.000,54.000 Z" class="cls-12" />
    <rect x="150" y="46" width="10" height="6" class="cls-7" />
    <path d="M195.553,37.224 L196.447,36.776 L202.447,48.776 L201.553,49.224 L195.553,37.224 Z" class="cls-9" />
    <path d="M279.553,37.224 L280.447,36.776 L286.447,48.776 L285.553,49.224 L279.553,37.224 Z" class="cls-9" />
    <path d="M201.578,48.732 L202.422,49.268 L195.422,60.268 L194.578,59.732 L201.578,48.732 Z" class="cls-9" />
    <path d="M285.578,48.732 L286.422,49.268 L279.422,60.268 L278.578,59.732 L285.578,48.732 Z" class="cls-9" />
    <path d="M114.000,64.000 L115.000,64.000 L115.000,93.000 L114.000,93.000 L114.000,64.000 Z" class="cls-9" />
    <path d="M130.007,168.000 L350.992,168.000 L350.992,561.000 L130.507,561.000 " class="cls-16" />
    <rect x="130" y="436" width="221" height="22.5" class="cls-17" />
    <text transform="translate(167 207) scale(0.32 0.32)" class="cls-18"><tspan class="cls-19">Cut</tspan></text>
    <text transform="translate(167 188) scale(0.32 0.32)" class="cls-18"><tspan class="cls-19">New</tspan></text>
    <text transform="translate(167 225) scale(0.32 0.32)" class="cls-18"><tspan class="cls-19">Copy</tspan></text>
    <text transform="translate(167 243) scale(0.32 0.32)" class="cls-18"><tspan class="cls-19">Copy Path</tspan></text>
    <text transform="translate(167 263) scale(0.32 0.32)" class="cls-18"><tspan class="cls-19">Copy as Plain Text</tspan></text>
    <text transform="translate(167 281) scale(0.32 0.32)" class="cls-18"><tspan class="cls-19">Copy as Reference</tspan></text>
    <text transform="translate(167 300) scale(0.32 0.32)" class="cls-18"><tspan class="cls-19">Paste</tspan></text>
    <text transform="translate(167 320) scale(0.32 0.32)" class="cls-18"><tspan class="cls-19">Find Usages</tspan></text>
    <text transform="translate(167 338) scale(0.32 0.32)" class="cls-18"><tspan class="cls-19">Find in Path...</tspan></text>
    <text transform="translate(167 358) scale(0.32 0.32)" class="cls-18"><tspan class="cls-19">Replace in Path...</tspan></text>
    <text transform="translate(167 376) scale(0.32 0.32)" class="cls-18"><tspan class="cls-19">Inspect Code...</tspan></text>
    <text transform="translate(167 394) scale(0.32 0.32)" class="cls-18"><tspan class="cls-19">Refractor</tspan></text>
    <text transform="translate(167 414) scale(0.32 0.32)" class="cls-18"><tspan class="cls-19">Add to Favorites</tspan></text>
    <text transform="translate(167 431) scale(0.32 0.32)" class="cls-18"><tspan class="cls-19">Delete...</tspan></text>
    <text transform="translate(167 451) scale(0.32 0.32)" class="cls-18"><tspan class="cls-20">Run 'testsdk'</tspan></text>
    <text transform="translate(167 476) scale(0.32 0.32)" class="cls-18"><tspan class="cls-19">Debug 'testsdk'</tspan></text>
    <text transform="translate(167 496) scale(0.32 0.32)" class="cls-18"><tspan class="cls-19">Create 'testsdk'...</tspan></text>
    <text transform="translate(167 515) scale(0.32 0.32)" class="cls-18"><tspan class="cls-19">Local History</tspan></text>
    <text transform="translate(167 533) scale(0.32 0.32)" class="cls-18"><tspan class="cls-19">Synchronize 'testsdk.py'</tspan></text>
    <text transform="translate(167 550) scale(0.32 0.32)" class="cls-18"><tspan class="cls-19">Show in Explorer</tspan></text>
    <path d="M349.412,305.610 L349.412,306.568 L133.187,306.568 L133.187,305.610 L349.412,305.610 Z" class="cls-21" />
    <path d="M349.412,381.099 L349.412,382.057 L133.187,382.057 L133.187,381.099 L349.412,381.099 Z" class="cls-21" />
    <path d="M349.412,399.255 L349.412,400.213 L133.187,400.213 L133.187,399.255 L349.412,399.255 Z" class="cls-21" />
    <path d="M402.000,33.000 L498.000,33.000 L498.000,60.000 L848.000,60.000 L848.000,64.000 L402.000,64.000 L402.000,33.000 Z" class="cls-14" />
    <rect x="463" y="65" width="385" height="474" class="cls-5" />
    <text transform="translate(417 53) scale(0.5 0.5)" class="cls-2"><tspan class="cls-8">testsdk.py</tspan></text>
    <text transform="translate(470 88) scale(0.5 0.5)" class="cls-2"><tspan class="cls-22">from</tspan></text>
    <text transform="translate(675 88) scale(0.5 0.5)" class="cls-2"><tspan class="cls-22">import</tspan></text>
    <text transform="translate(505 88) scale(0.5 0.5)" class="cls-2"><tspan class="cls-23">tspublicrestapi.tspu...</tspan></text>
    <text transform="translate(725 88) scale(0.5 0.5)" class="cls-2"><tspan class="cls-23">Tspublicrestap...</tspan></text>
    <text transform="translate(418 87) scale(0.5 0.5)" class="cls-2"><tspan class="cls-24">1</tspan></text>
    <text transform="translate(418 111) scale(0.5 0.5)" class="cls-2"><tspan class="cls-24">2</tspan></text>
    <text transform="translate(418 136) scale(0.5 0.5)" class="cls-2"><tspan class="cls-24">3</tspan></text>
    <path d="M493.853,47.901 L491.752,49.998 L493.853,52.096 L493.853,52.096 C493.949,52.192 494.008,52.324 494.008,52.470 C494.008,52.763 493.771,53.000 493.478,53.000 C493.331,53.000 493.199,52.941 493.103,52.845 L493.103,52.845 L491.002,50.747 L488.902,52.845 L488.902,52.845 C488.806,52.941 488.673,53.000 488.527,53.000 C488.234,53.000 487.996,52.763 487.996,52.470 C487.996,52.324 488.055,52.192 488.151,52.096 L488.151,52.096 L490.252,49.998 L488.151,47.901 L488.151,47.901 C488.055,47.805 487.996,47.673 487.996,47.527 C487.996,47.234 488.234,46.997 488.527,46.997 C488.673,46.997 488.806,47.056 488.902,47.152 L488.902,47.152 L491.002,49.249 L493.103,47.152 L493.103,47.152 C493.199,47.056 493.331,46.997 493.478,46.997 C493.771,46.997 494.008,47.234 494.008,47.527 C494.008,47.673 493.949,47.805 493.853,47.901 L493.853,47.901 Z" class="cls-9" />
    <path d="M-1.000,65.000 L-1.000,64.000 L850.000,64.000 L850.000,65.000 L-1.000,65.000 Z" class="cls-9" />
    <path d="M462.000,64.000 L463.000,64.000 L463.000,539.000 L462.000,539.000 L462.000,64.000 Z" class="cls-9" />
    <path d="M498.000,33.000 L499.000,33.000 L499.000,60.000 L498.000,60.000 L498.000,33.000 Z" class="cls-9" />
    <path d="M849.000,59.000 L849.000,60.000 L498.000,60.000 L498.000,59.000 L849.000,59.000 Z" class="cls-9" />
</svg>
