<svg xmlns="http://www.w3.org/2000/svg" xmlns:xlink="http://www.w3.org/1999/xlink" preserveAspectRatio="xMidYMid" width="415" height="139" viewBox="0 0 415 139">
    <defs>
        <style>
            .cls-1 {
                fill: #f7f7f7;
                stroke: #c5c5c5;
            }

            .cls-1, .cls-11, .cls-4, .cls-5, .cls-9 {
                stroke-linejoin: round;
                stroke-width: 1px;
            }

            .cls-2, .cls-7, .cls-9 {
                fill: #fff;
            }

            .cls-12, .cls-2, .cls-3 {
                fill-rule: evenodd;
            }

            .cls-3 {
                fill: #3a3935;
            }

            .cls-4 {
                fill: #447cd6;
            }

            .cls-4, .cls-5 {
                stroke: #8b8b8b;
            }

            .cls-5 {
                fill: #e5e5e5;
            }

            .cls-10, .cls-6, .cls-7, .cls-8 {
                font-size: 13.333px;
            }

            .cls-10, .cls-7, .cls-8 {
                font-family: "Myriad Pro";
            }

            .cls-8 {
                fill: #1c1c1c;
            }

            .cls-9 {
                stroke: #447cd6;
            }

            .cls-11 {
                fill: #c9e0c8;
                stroke: #afc0af;
            }

            .cls-12 {
                fill: #7ea17e;
            }
        </style>
    </defs>
    <rect width="415" height="139" class="cls-1" />
    <path d="M0.629,1.000 L414.371,1.000 L414.371,30.000 L0.629,30.000 L0.629,1.000 Z" class="cls-2" />
    <path d="M345.242,15.293 L341.359,15.293 L339.988,15.293 L336.104,15.293 C335.726,15.293 335.419,15.028 335.419,14.701 C335.419,14.374 335.726,14.109 336.104,14.109 L339.988,14.109 L341.359,14.109 L345.242,14.109 C345.621,14.109 345.927,14.374 345.927,14.701 C345.927,15.028 345.621,15.293 345.242,15.293 Z" class="cls-3" />
    <path d="M406.582,11.806 L403.726,14.701 L406.582,17.596 L406.582,17.596 C406.712,17.728 406.793,17.911 406.793,18.113 C406.793,18.516 406.470,18.844 406.072,18.844 C405.872,18.844 405.692,18.762 405.562,18.629 L405.562,18.629 L402.706,15.735 L399.851,18.629 L399.851,18.629 C399.720,18.762 399.540,18.844 399.341,18.844 C398.943,18.844 398.620,18.516 398.620,18.113 C398.620,17.911 398.700,17.728 398.831,17.596 L398.831,17.596 L401.686,14.701 L398.831,11.806 L398.831,11.806 C398.700,11.674 398.620,11.491 398.620,11.289 C398.620,10.885 398.943,10.558 399.341,10.558 C399.540,10.558 399.720,10.640 399.851,10.772 L399.851,10.772 L402.706,13.667 L405.562,10.772 L405.562,10.772 C405.692,10.640 405.872,10.558 406.072,10.558 C406.470,10.558 406.793,10.885 406.793,11.289 C406.793,11.491 406.712,11.674 406.582,11.806 L406.582,11.806 Z" class="cls-3" />
    <path d="M375.393,18.844 L367.986,18.844 C367.775,18.844 367.603,18.670 367.603,18.455 L367.603,10.946 C367.603,10.732 367.775,10.558 367.986,10.558 L375.393,10.558 C375.605,10.558 375.776,10.732 375.776,10.946 L375.776,18.455 C375.776,18.670 375.605,18.844 375.393,18.844 ZM375.010,11.335 L368.369,11.335 L368.369,18.067 L375.010,18.067 L375.010,11.335 Z" class="cls-3" />
    <rect x="141" y="104" width="59" height="25" rx="3" ry="3" class="cls-4" />
    <rect x="213" y="104" width="59" height="25" rx="3" ry="3" class="cls-5" />
    <text x="162" y="121" class="cls-6"><tspan class="cls-7">OK</tspan></text>
    <text x="224" y="121" class="cls-6"><tspan class="cls-8">Cancel</tspan></text>
    <rect x="58" y="60" width="344" height="23" class="cls-9" />
    <text x="58" y="52" class="cls-6"><tspan class="cls-10">Enter new directory name:</tspan></text>
    <text x="8" y="19" class="cls-6"><tspan class="cls-10">New Directory</tspan></text>
    <text x="67" y="76" class="cls-6"><tspan class="cls-10">test</tspan></text>
    <rect x="13" y="40" width="26" height="26" class="cls-11" />
    <path d="M24.782,56.236 C24.782,54.499 24.858,53.835 26.106,52.925 C26.785,52.428 27.195,52.117 27.195,51.375 C27.195,49.963 26.580,49.704 25.842,49.704 C24.858,49.704 24.365,50.392 24.296,51.061 L24.296,51.079 L20.998,51.079 C20.998,47.931 24.120,46.001 26.035,46.001 C28.137,46.001 31.002,47.153 31.002,50.699 C31.002,52.165 30.697,53.274 29.344,54.270 C28.589,54.831 28.272,54.933 28.272,56.236 L24.782,56.236 ZM28.331,59.999 L24.829,59.999 L24.829,57.448 L28.331,57.448 L28.331,59.999 Z" class="cls-12" />
</svg>
